<svg xmlns="http://www.w3.org/2000/svg" xmlns:xlink="http://www.w3.org/1999/xlink" width="330" zoomAndPan="magnify" viewBox="0 0 247.5 80.249996" height="107" preserveAspectRatio="xMidYMid meet" version="1.0"><defs><g/><clipPath id="dff9d47a25"><path d="M 0.898438 0 L 64.800781 0 L 64.800781 78.765625 L 0.898438 78.765625 Z M 0.898438 0 " clip-rule="nonzero"/></clipPath></defs><g clip-path="url(#dff9d47a25)"><path fill="#2f6047" d="M 65.046875 46.746094 C 65.046875 64.460938 50.6875 78.820312 32.972656 78.820312 C 26.609375 78.820312 20.683594 76.957031 15.691406 73.761719 L 15.691406 64.355469 C 20.144531 68.71875 26.238281 71.417969 32.972656 71.417969 C 46.597656 71.417969 57.652344 60.371094 57.652344 46.746094 C 57.652344 33.113281 46.597656 22.0625 32.972656 22.0625 C 26.238281 22.0625 20.144531 24.761719 15.691406 29.125 C 11.132812 33.609375 8.289062 39.84375 8.289062 46.746094 L 8.289062 67.230469 C 3.675781 61.675781 0.898438 54.53125 0.898438 46.746094 L 0.898438 5.746094 L 8.289062 0.015625 L 8.289062 26.25 C 10.40625 23.714844 12.902344 21.515625 15.691406 19.726562 C 20.683594 16.53125 26.609375 14.664062 32.972656 14.664062 C 50.6875 14.664062 65.046875 29.027344 65.046875 46.746094 Z M 65.046875 46.746094 " fill-opacity="1" fill-rule="nonzero"/></g><path fill="#320b2a" d="M 48.796875 46.746094 C 48.796875 55.480469 41.707031 62.5625 32.972656 62.5625 C 24.234375 62.5625 17.148438 55.480469 17.148438 46.746094 C 17.148438 38.007812 24.234375 30.921875 32.972656 30.921875 C 41.707031 30.921875 48.796875 38.007812 48.796875 46.746094 Z M 48.796875 46.746094 " fill-opacity="1" fill-rule="nonzero"/><g fill="#ffffff" fill-opacity="1"><g transform="translate(74.164659, 46.144069)"><g><path d="M 1.484375 0 L 1.484375 -15.265625 L 7.609375 -15.265625 C 9.191406 -15.265625 10.398438 -14.894531 11.234375 -14.15625 C 12.066406 -13.425781 12.484375 -12.484375 12.484375 -11.328125 C 12.484375 -10.367188 12.222656 -9.601562 11.703125 -9.03125 C 11.191406 -8.457031 10.566406 -8.070312 9.828125 -7.875 C 10.703125 -7.695312 11.421875 -7.257812 11.984375 -6.5625 C 12.554688 -5.875 12.84375 -5.070312 12.84375 -4.15625 C 12.84375 -2.957031 12.40625 -1.960938 11.53125 -1.171875 C 10.65625 -0.390625 9.421875 0 7.828125 0 Z M 4.265625 -8.84375 L 7.1875 -8.84375 C 7.976562 -8.84375 8.582031 -9.023438 9 -9.390625 C 9.425781 -9.753906 9.640625 -10.269531 9.640625 -10.9375 C 9.640625 -11.582031 9.429688 -12.085938 9.015625 -12.453125 C 8.597656 -12.828125 7.976562 -13.015625 7.15625 -13.015625 L 4.265625 -13.015625 Z M 4.265625 -2.265625 L 7.390625 -2.265625 C 8.210938 -2.265625 8.851562 -2.457031 9.3125 -2.84375 C 9.769531 -3.226562 10 -3.769531 10 -4.46875 C 10 -5.175781 9.757812 -5.734375 9.28125 -6.140625 C 8.800781 -6.546875 8.15625 -6.75 7.34375 -6.75 L 4.265625 -6.75 Z M 4.265625 -2.265625 "/></g></g></g><g fill="#ffffff" fill-opacity="1"><g transform="translate(87.436158, 46.144069)"><g><path d="M 1.421875 0 L 1.421875 -10.8125 L 3.90625 -10.8125 L 4.15625 -8.78125 C 4.550781 -9.476562 5.085938 -10.035156 5.765625 -10.453125 C 6.441406 -10.867188 7.238281 -11.078125 8.15625 -11.078125 L 8.15625 -8.125 L 7.375 -8.125 C 6.757812 -8.125 6.210938 -8.03125 5.734375 -7.84375 C 5.253906 -7.65625 4.878906 -7.328125 4.609375 -6.859375 C 4.335938 -6.398438 4.203125 -5.753906 4.203125 -4.921875 L 4.203125 0 Z M 1.421875 0 "/></g></g></g><g fill="#ffffff" fill-opacity="1"><g transform="translate(95.58644, 46.144069)"><g><path d="M 5.46875 0.265625 C 4.113281 0.265625 3.070312 -0.15625 2.34375 -1 C 1.613281 -1.84375 1.25 -3.078125 1.25 -4.703125 L 1.25 -10.8125 L 4.015625 -10.8125 L 4.015625 -4.96875 C 4.015625 -4.039062 4.203125 -3.328125 4.578125 -2.828125 C 4.953125 -2.335938 5.546875 -2.09375 6.359375 -2.09375 C 7.128906 -2.09375 7.765625 -2.367188 8.265625 -2.921875 C 8.773438 -3.472656 9.03125 -4.242188 9.03125 -5.234375 L 9.03125 -10.8125 L 11.8125 -10.8125 L 11.8125 0 L 9.34375 0 L 9.140625 -1.828125 C 8.796875 -1.191406 8.304688 -0.679688 7.671875 -0.296875 C 7.046875 0.078125 6.3125 0.265625 5.46875 0.265625 Z M 5.46875 0.265625 "/></g></g></g><g fill="#ffffff" fill-opacity="1"><g transform="translate(108.356714, 46.144069)"><g><path d="M 1.421875 0 L 1.421875 -10.8125 L 3.875 -10.8125 L 4.09375 -8.984375 C 4.425781 -9.617188 4.910156 -10.125 5.546875 -10.5 C 6.179688 -10.882812 6.925781 -11.078125 7.78125 -11.078125 C 9.113281 -11.078125 10.148438 -10.65625 10.890625 -9.8125 C 11.640625 -8.96875 12.015625 -7.734375 12.015625 -6.109375 L 12.015625 0 L 9.21875 0 L 9.21875 -5.84375 C 9.21875 -6.769531 9.03125 -7.476562 8.65625 -7.96875 C 8.28125 -8.46875 7.691406 -8.71875 6.890625 -8.71875 C 6.097656 -8.71875 5.453125 -8.441406 4.953125 -7.890625 C 4.453125 -7.335938 4.203125 -6.566406 4.203125 -5.578125 L 4.203125 0 Z M 1.421875 0 "/></g></g></g><g fill="#ffffff" fill-opacity="1"><g transform="translate(121.126989, 46.144069)"><g><path d="M 6.609375 0.265625 C 5.554688 0.265625 4.613281 0.0234375 3.78125 -0.453125 C 2.945312 -0.929688 2.285156 -1.597656 1.796875 -2.453125 C 1.304688 -3.304688 1.0625 -4.289062 1.0625 -5.40625 C 1.0625 -6.519531 1.304688 -7.503906 1.796875 -8.359375 C 2.296875 -9.210938 2.960938 -9.878906 3.796875 -10.359375 C 4.640625 -10.835938 5.582031 -11.078125 6.625 -11.078125 C 7.65625 -11.078125 8.585938 -10.835938 9.421875 -10.359375 C 10.265625 -9.878906 10.925781 -9.210938 11.40625 -8.359375 C 11.894531 -7.503906 12.140625 -6.519531 12.140625 -5.40625 C 12.140625 -4.289062 11.894531 -3.304688 11.40625 -2.453125 C 10.925781 -1.597656 10.265625 -0.929688 9.421875 -0.453125 C 8.578125 0.0234375 7.640625 0.265625 6.609375 0.265625 Z M 6.609375 -2.15625 C 7.328125 -2.15625 7.957031 -2.425781 8.5 -2.96875 C 9.039062 -3.519531 9.3125 -4.332031 9.3125 -5.40625 C 9.3125 -6.476562 9.039062 -7.285156 8.5 -7.828125 C 7.957031 -8.378906 7.332031 -8.65625 6.625 -8.65625 C 5.882812 -8.65625 5.25 -8.378906 4.71875 -7.828125 C 4.1875 -7.285156 3.921875 -6.476562 3.921875 -5.40625 C 3.921875 -4.332031 4.1875 -3.519531 4.71875 -2.96875 C 5.25 -2.425781 5.878906 -2.15625 6.609375 -2.15625 Z M 6.609375 -2.15625 "/></g></g></g><g fill="#ffffff" fill-opacity="1"><g transform="translate(133.853668, 46.144069)"><g/></g></g><g fill="#ffffff" fill-opacity="1"><g transform="translate(138.560742, 46.144069)"><g><path d="M 1.484375 0 L 1.484375 -15.265625 L 7.125 -15.265625 C 8.34375 -15.265625 9.351562 -15.054688 10.15625 -14.640625 C 10.957031 -14.234375 11.550781 -13.675781 11.9375 -12.96875 C 12.332031 -12.257812 12.53125 -11.460938 12.53125 -10.578125 C 12.53125 -9.734375 12.34375 -8.957031 11.96875 -8.25 C 11.59375 -7.539062 11.003906 -6.972656 10.203125 -6.546875 C 9.398438 -6.117188 8.375 -5.90625 7.125 -5.90625 L 4.265625 -5.90625 L 4.265625 0 Z M 4.265625 -8.171875 L 6.953125 -8.171875 C 7.921875 -8.171875 8.617188 -8.382812 9.046875 -8.8125 C 9.484375 -9.238281 9.703125 -9.828125 9.703125 -10.578125 C 9.703125 -11.328125 9.484375 -11.914062 9.046875 -12.34375 C 8.617188 -12.769531 7.921875 -12.984375 6.953125 -12.984375 L 4.265625 -12.984375 Z M 4.265625 -8.171875 "/></g></g></g><g fill="#ffffff" fill-opacity="1"><g transform="translate(151.309213, 46.144069)"><g><path d="M 2.921875 -12.484375 C 2.410156 -12.484375 1.988281 -12.632812 1.65625 -12.9375 C 1.332031 -13.25 1.171875 -13.640625 1.171875 -14.109375 C 1.171875 -14.566406 1.332031 -14.941406 1.65625 -15.234375 C 1.988281 -15.535156 2.410156 -15.6875 2.921875 -15.6875 C 3.429688 -15.6875 3.847656 -15.535156 4.171875 -15.234375 C 4.503906 -14.941406 4.671875 -14.566406 4.671875 -14.109375 C 4.671875 -13.640625 4.503906 -13.25 4.171875 -12.9375 C 3.847656 -12.632812 3.429688 -12.484375 2.921875 -12.484375 Z M 1.53125 0 L 1.53125 -10.8125 L 4.3125 -10.8125 L 4.3125 0 Z M 1.53125 0 "/></g></g></g><g fill="#ffffff" fill-opacity="1"><g transform="translate(156.648274, 46.144069)"><g><path d="M 6.609375 0.265625 C 5.554688 0.265625 4.613281 0.0234375 3.78125 -0.453125 C 2.945312 -0.929688 2.285156 -1.597656 1.796875 -2.453125 C 1.304688 -3.304688 1.0625 -4.289062 1.0625 -5.40625 C 1.0625 -6.519531 1.304688 -7.503906 1.796875 -8.359375 C 2.296875 -9.210938 2.960938 -9.878906 3.796875 -10.359375 C 4.640625 -10.835938 5.582031 -11.078125 6.625 -11.078125 C 7.65625 -11.078125 8.585938 -10.835938 9.421875 -10.359375 C 10.265625 -9.878906 10.925781 -9.210938 11.40625 -8.359375 C 11.894531 -7.503906 12.140625 -6.519531 12.140625 -5.40625 C 12.140625 -4.289062 11.894531 -3.304688 11.40625 -2.453125 C 10.925781 -1.597656 10.265625 -0.929688 9.421875 -0.453125 C 8.578125 0.0234375 7.640625 0.265625 6.609375 0.265625 Z M 6.609375 -2.15625 C 7.328125 -2.15625 7.957031 -2.425781 8.5 -2.96875 C 9.039062 -3.519531 9.3125 -4.332031 9.3125 -5.40625 C 9.3125 -6.476562 9.039062 -7.285156 8.5 -7.828125 C 7.957031 -8.378906 7.332031 -8.65625 6.625 -8.65625 C 5.882812 -8.65625 5.25 -8.378906 4.71875 -7.828125 C 4.1875 -7.285156 3.921875 -6.476562 3.921875 -5.40625 C 3.921875 -4.332031 4.1875 -3.519531 4.71875 -2.96875 C 5.25 -2.425781 5.878906 -2.15625 6.609375 -2.15625 Z M 6.609375 -2.15625 "/></g></g></g><g fill="#ffffff" fill-opacity="1"><g transform="translate(169.374948, 46.144069)"><g><path d="M 1.421875 0 L 1.421875 -10.8125 L 3.90625 -10.8125 L 4.15625 -8.78125 C 4.550781 -9.476562 5.085938 -10.035156 5.765625 -10.453125 C 6.441406 -10.867188 7.238281 -11.078125 8.15625 -11.078125 L 8.15625 -8.125 L 7.375 -8.125 C 6.757812 -8.125 6.210938 -8.03125 5.734375 -7.84375 C 5.253906 -7.65625 4.878906 -7.328125 4.609375 -6.859375 C 4.335938 -6.398438 4.203125 -5.753906 4.203125 -4.921875 L 4.203125 0 Z M 1.421875 0 "/></g></g></g><g fill="#ffffff" fill-opacity="1"><g transform="translate(177.525224, 46.144069)"><g><path d="M 1.421875 0 L 1.421875 -10.8125 L 3.875 -10.8125 L 4.09375 -8.984375 C 4.425781 -9.617188 4.910156 -10.125 5.546875 -10.5 C 6.179688 -10.882812 6.925781 -11.078125 7.78125 -11.078125 C 9.113281 -11.078125 10.148438 -10.65625 10.890625 -9.8125 C 11.640625 -8.96875 12.015625 -7.734375 12.015625 -6.109375 L 12.015625 0 L 9.21875 0 L 9.21875 -5.84375 C 9.21875 -6.769531 9.03125 -7.476562 8.65625 -7.96875 C 8.28125 -8.46875 7.691406 -8.71875 6.890625 -8.71875 C 6.097656 -8.71875 5.453125 -8.441406 4.953125 -7.890625 C 4.453125 -7.335938 4.203125 -6.566406 4.203125 -5.578125 L 4.203125 0 Z M 1.421875 0 "/></g></g></g><g fill="#ffffff" fill-opacity="1"><g transform="translate(190.295492, 46.144069)"><g><path d="M 6.609375 0.265625 C 5.554688 0.265625 4.613281 0.0234375 3.78125 -0.453125 C 2.945312 -0.929688 2.285156 -1.597656 1.796875 -2.453125 C 1.304688 -3.304688 1.0625 -4.289062 1.0625 -5.40625 C 1.0625 -6.519531 1.304688 -7.503906 1.796875 -8.359375 C 2.296875 -9.210938 2.960938 -9.878906 3.796875 -10.359375 C 4.640625 -10.835938 5.582031 -11.078125 6.625 -11.078125 C 7.65625 -11.078125 8.585938 -10.835938 9.421875 -10.359375 C 10.265625 -9.878906 10.925781 -9.210938 11.40625 -8.359375 C 11.894531 -7.503906 12.140625 -6.519531 12.140625 -5.40625 C 12.140625 -4.289062 11.894531 -3.304688 11.40625 -2.453125 C 10.925781 -1.597656 10.265625 -0.929688 9.421875 -0.453125 C 8.578125 0.0234375 7.640625 0.265625 6.609375 0.265625 Z M 6.609375 -2.15625 C 7.328125 -2.15625 7.957031 -2.425781 8.5 -2.96875 C 9.039062 -3.519531 9.3125 -4.332031 9.3125 -5.40625 C 9.3125 -6.476562 9.039062 -7.285156 8.5 -7.828125 C 7.957031 -8.378906 7.332031 -8.65625 6.625 -8.65625 C 5.882812 -8.65625 5.25 -8.378906 4.71875 -7.828125 C 4.1875 -7.285156 3.921875 -6.476562 3.921875 -5.40625 C 3.921875 -4.332031 4.1875 -3.519531 4.71875 -2.96875 C 5.25 -2.425781 5.878906 -2.15625 6.609375 -2.15625 Z M 6.609375 -2.15625 "/></g></g></g><g fill="#ffffff" fill-opacity="1"><g transform="translate(74.164659, 61.41103)"><g><path d="M 0.65625 -0.390625 C 0.925781 -0.398438 1.117188 -0.460938 1.234375 -0.578125 C 1.359375 -0.703125 1.425781 -0.84375 1.4375 -1 C 1.457031 -1.164062 1.46875 -1.453125 1.46875 -1.859375 L 1.46875 -6.984375 C 1.46875 -7.316406 1.484375 -7.601562 1.515625 -7.84375 L 0.65625 -7.796875 L 0.65625 -8.328125 L 3.453125 -8.328125 C 4.953125 -8.335938 6.132812 -7.988281 7 -7.28125 C 7.875 -6.582031 8.3125 -5.539062 8.3125 -4.15625 C 8.3125 -3.40625 8.132812 -2.710938 7.78125 -2.078125 C 7.4375 -1.441406 6.921875 -0.9375 6.234375 -0.5625 C 5.554688 -0.1875 4.738281 0 3.78125 0 L 0.65625 0 Z M 3.75 -0.453125 C 4.414062 -0.453125 5.003906 -0.613281 5.515625 -0.9375 C 6.035156 -1.257812 6.4375 -1.707031 6.71875 -2.28125 C 7 -2.851562 7.140625 -3.492188 7.140625 -4.203125 C 7.140625 -5.359375 6.820312 -6.257812 6.1875 -6.90625 C 5.5625 -7.5625 4.609375 -7.890625 3.328125 -7.890625 C 3.046875 -7.890625 2.847656 -7.832031 2.734375 -7.71875 C 2.617188 -7.613281 2.550781 -7.476562 2.53125 -7.3125 C 2.519531 -7.15625 2.515625 -6.875 2.515625 -6.46875 L 2.515625 -1.40625 C 2.515625 -0.988281 2.5 -0.675781 2.46875 -0.46875 C 2.75 -0.457031 3.175781 -0.453125 3.75 -0.453125 Z M 3.75 -0.453125 "/></g></g></g><g fill="#ffffff" fill-opacity="1"><g transform="translate(82.760346, 61.41103)"><g><path d="M 3.40625 0.1875 C 2.851562 0.1875 2.359375 0.0625 1.921875 -0.1875 C 1.484375 -0.445312 1.132812 -0.816406 0.875 -1.296875 C 0.625 -1.773438 0.5 -2.328125 0.5 -2.953125 C 0.5 -3.515625 0.625 -4.035156 0.875 -4.515625 C 1.132812 -5.003906 1.488281 -5.394531 1.9375 -5.6875 C 2.394531 -5.988281 2.914062 -6.140625 3.5 -6.140625 C 3.945312 -6.140625 4.351562 -6.039062 4.71875 -5.84375 C 5.082031 -5.644531 5.367188 -5.347656 5.578125 -4.953125 C 5.796875 -4.554688 5.90625 -4.070312 5.90625 -3.5 L 1.71875 -3.4375 C 1.71875 -2.488281 1.875 -1.75 2.1875 -1.21875 C 2.507812 -0.6875 3.007812 -0.421875 3.6875 -0.421875 C 4.050781 -0.421875 4.425781 -0.515625 4.8125 -0.703125 C 5.195312 -0.890625 5.492188 -1.125 5.703125 -1.40625 L 5.984375 -1.171875 C 5.679688 -0.703125 5.289062 -0.359375 4.8125 -0.140625 C 4.332031 0.078125 3.863281 0.1875 3.40625 0.1875 Z M 4.796875 -3.9375 C 4.796875 -4.414062 4.6875 -4.820312 4.46875 -5.15625 C 4.257812 -5.5 3.9375 -5.671875 3.5 -5.671875 C 2.519531 -5.671875 1.941406 -5.09375 1.765625 -3.9375 Z M 4.796875 -3.9375 "/></g></g></g><g fill="#ffffff" fill-opacity="1"><g transform="translate(88.942577, 61.41103)"><g><path d="M 2.953125 0.1875 C 2.585938 0.1875 2.25 0.132812 1.9375 0.03125 C 1.625 -0.0625 1.359375 -0.179688 1.140625 -0.328125 L 1.1875 0.078125 L 0.6875 0.078125 L 0.625 -1.96875 L 0.984375 -1.96875 C 1.003906 -1.632812 1.09375 -1.34375 1.25 -1.09375 C 1.414062 -0.84375 1.628906 -0.644531 1.890625 -0.5 C 2.160156 -0.351562 2.445312 -0.28125 2.75 -0.28125 C 3.09375 -0.28125 3.394531 -0.359375 3.65625 -0.515625 C 3.925781 -0.679688 4.0625 -0.914062 4.0625 -1.21875 C 4.0625 -1.4375 3.992188 -1.617188 3.859375 -1.765625 C 3.722656 -1.921875 3.554688 -2.046875 3.359375 -2.140625 C 3.171875 -2.242188 2.90625 -2.363281 2.5625 -2.5 C 2.132812 -2.65625 1.796875 -2.800781 1.546875 -2.9375 C 1.296875 -3.082031 1.078125 -3.269531 0.890625 -3.5 C 0.710938 -3.738281 0.625 -4.039062 0.625 -4.40625 C 0.625 -4.664062 0.6875 -4.925781 0.8125 -5.1875 C 0.9375 -5.457031 1.148438 -5.679688 1.453125 -5.859375 C 1.753906 -6.046875 2.15625 -6.140625 2.65625 -6.140625 C 2.894531 -6.140625 3.144531 -6.097656 3.40625 -6.015625 C 3.664062 -5.929688 3.90625 -5.800781 4.125 -5.625 L 4.109375 -6.078125 L 4.609375 -6.078125 L 4.609375 -4 L 4.21875 -4 C 4.195312 -4.457031 4.054688 -4.851562 3.796875 -5.1875 C 3.535156 -5.53125 3.175781 -5.703125 2.71875 -5.703125 C 2.351562 -5.703125 2.066406 -5.609375 1.859375 -5.421875 C 1.648438 -5.242188 1.546875 -5.035156 1.546875 -4.796875 C 1.546875 -4.566406 1.613281 -4.367188 1.75 -4.203125 C 1.894531 -4.046875 2.066406 -3.910156 2.265625 -3.796875 C 2.472656 -3.691406 2.753906 -3.570312 3.109375 -3.4375 C 3.515625 -3.269531 3.84375 -3.113281 4.09375 -2.96875 C 4.351562 -2.832031 4.570312 -2.644531 4.75 -2.40625 C 4.925781 -2.175781 5.015625 -1.894531 5.015625 -1.5625 C 5.015625 -1.175781 4.914062 -0.851562 4.71875 -0.59375 C 4.53125 -0.332031 4.28125 -0.132812 3.96875 0 C 3.65625 0.125 3.316406 0.1875 2.953125 0.1875 Z M 2.953125 0.1875 "/></g></g></g><g fill="#ffffff" fill-opacity="1"><g transform="translate(94.185592, 61.41103)"><g><path d="M 2.1875 0.1875 C 1.601562 0.1875 1.160156 0.0546875 0.859375 -0.203125 C 0.554688 -0.460938 0.40625 -0.800781 0.40625 -1.21875 C 0.40625 -1.6875 0.585938 -2.078125 0.953125 -2.390625 C 1.328125 -2.703125 1.789062 -2.9375 2.34375 -3.09375 C 2.90625 -3.25 3.46875 -3.320312 4.03125 -3.3125 L 4.03125 -4.0625 C 4.03125 -4.570312 3.953125 -4.972656 3.796875 -5.265625 C 3.648438 -5.554688 3.332031 -5.703125 2.84375 -5.703125 C 2.59375 -5.703125 2.359375 -5.648438 2.140625 -5.546875 C 1.921875 -5.441406 1.757812 -5.285156 1.65625 -5.078125 C 1.757812 -4.960938 1.8125 -4.8125 1.8125 -4.625 C 1.8125 -4.507812 1.765625 -4.394531 1.671875 -4.28125 C 1.585938 -4.175781 1.460938 -4.125 1.296875 -4.125 C 1.128906 -4.125 1 -4.175781 0.90625 -4.28125 C 0.8125 -4.394531 0.765625 -4.535156 0.765625 -4.703125 C 0.765625 -4.960938 0.863281 -5.203125 1.0625 -5.421875 C 1.269531 -5.640625 1.550781 -5.8125 1.90625 -5.9375 C 2.269531 -6.070312 2.671875 -6.140625 3.109375 -6.140625 C 3.773438 -6.140625 4.265625 -5.960938 4.578125 -5.609375 C 4.898438 -5.253906 5.054688 -4.695312 5.046875 -3.9375 L 5.046875 -1.265625 C 5.046875 -1.003906 5.03125 -0.734375 5 -0.453125 L 5.84375 -0.5 L 5.84375 0 L 4.140625 0 C 4.117188 -0.113281 4.09375 -0.335938 4.0625 -0.671875 C 3.476562 -0.0976562 2.851562 0.1875 2.1875 0.1875 Z M 2.46875 -0.484375 C 2.757812 -0.484375 3.03125 -0.539062 3.28125 -0.65625 C 3.53125 -0.769531 3.78125 -0.945312 4.03125 -1.1875 C 4.019531 -1.3125 4.015625 -1.515625 4.015625 -1.796875 L 4.03125 -2.90625 C 3.382812 -2.882812 2.804688 -2.753906 2.296875 -2.515625 C 1.785156 -2.273438 1.53125 -1.90625 1.53125 -1.40625 C 1.53125 -1.113281 1.617188 -0.882812 1.796875 -0.71875 C 1.972656 -0.5625 2.195312 -0.484375 2.46875 -0.484375 Z M 2.46875 -0.484375 "/></g></g></g><g fill="#ffffff" fill-opacity="1"><g transform="translate(100.058711, 61.41103)"><g><path d="M 0.515625 -0.359375 C 0.753906 -0.359375 0.921875 -0.414062 1.015625 -0.53125 C 1.117188 -0.644531 1.175781 -0.789062 1.1875 -0.96875 C 1.207031 -1.144531 1.21875 -1.425781 1.21875 -1.8125 L 1.21875 -4.515625 C 1.21875 -4.847656 1.234375 -5.109375 1.265625 -5.296875 L 0.421875 -5.25 L 0.421875 -5.75 L 0.796875 -5.75 C 1.097656 -5.75 1.316406 -5.769531 1.453125 -5.8125 C 1.585938 -5.863281 1.710938 -5.945312 1.828125 -6.0625 L 2.171875 -6.0625 C 2.203125 -5.75 2.222656 -5.359375 2.234375 -4.890625 C 2.429688 -5.210938 2.710938 -5.5 3.078125 -5.75 C 3.453125 -6.007812 3.835938 -6.140625 4.234375 -6.140625 C 4.472656 -6.140625 4.671875 -6.070312 4.828125 -5.9375 C 4.984375 -5.8125 5.0625 -5.628906 5.0625 -5.390625 C 5.0625 -5.265625 5.007812 -5.132812 4.90625 -5 C 4.8125 -4.875 4.675781 -4.8125 4.5 -4.8125 C 4.320312 -4.8125 4.175781 -4.875 4.0625 -5 C 3.957031 -5.132812 3.914062 -5.296875 3.9375 -5.484375 C 3.632812 -5.492188 3.328125 -5.378906 3.015625 -5.140625 C 2.710938 -4.898438 2.457031 -4.582031 2.25 -4.1875 L 2.265625 -1.265625 C 2.265625 -0.898438 2.25 -0.628906 2.21875 -0.453125 L 2.953125 -0.484375 L 2.953125 0 L 0.515625 0 Z M 0.515625 -0.359375 "/></g></g></g><g fill="#ffffff" fill-opacity="1"><g transform="translate(104.945049, 61.41103)"><g><path d="M 0.515625 -0.359375 C 0.753906 -0.359375 0.921875 -0.414062 1.015625 -0.53125 C 1.117188 -0.644531 1.175781 -0.789062 1.1875 -0.96875 C 1.207031 -1.144531 1.21875 -1.425781 1.21875 -1.8125 L 1.21875 -4.515625 C 1.21875 -4.847656 1.234375 -5.109375 1.265625 -5.296875 L 0.421875 -5.25 L 0.421875 -5.75 L 0.796875 -5.75 C 1.097656 -5.75 1.316406 -5.769531 1.453125 -5.8125 C 1.585938 -5.863281 1.710938 -5.945312 1.828125 -6.0625 L 2.171875 -6.0625 C 2.203125 -5.75 2.222656 -5.359375 2.234375 -4.890625 C 2.429688 -5.210938 2.710938 -5.5 3.078125 -5.75 C 3.453125 -6.007812 3.835938 -6.140625 4.234375 -6.140625 C 4.472656 -6.140625 4.671875 -6.070312 4.828125 -5.9375 C 4.984375 -5.8125 5.0625 -5.628906 5.0625 -5.390625 C 5.0625 -5.265625 5.007812 -5.132812 4.90625 -5 C 4.8125 -4.875 4.675781 -4.8125 4.5 -4.8125 C 4.320312 -4.8125 4.175781 -4.875 4.0625 -5 C 3.957031 -5.132812 3.914062 -5.296875 3.9375 -5.484375 C 3.632812 -5.492188 3.328125 -5.378906 3.015625 -5.140625 C 2.710938 -4.898438 2.457031 -4.582031 2.25 -4.1875 L 2.265625 -1.265625 C 2.265625 -0.898438 2.25 -0.628906 2.21875 -0.453125 L 2.953125 -0.484375 L 2.953125 0 L 0.515625 0 Z M 0.515625 -0.359375 "/></g></g></g><g fill="#ffffff" fill-opacity="1"><g transform="translate(109.831388, 61.41103)"><g><path d="M 3.46875 0.1875 C 2.925781 0.1875 2.425781 0.0625 1.96875 -0.1875 C 1.507812 -0.445312 1.144531 -0.804688 0.875 -1.265625 C 0.613281 -1.734375 0.484375 -2.253906 0.484375 -2.828125 C 0.484375 -3.441406 0.613281 -4 0.875 -4.5 C 1.132812 -5.007812 1.492188 -5.410156 1.953125 -5.703125 C 2.410156 -5.992188 2.914062 -6.140625 3.46875 -6.140625 C 4.019531 -6.140625 4.523438 -6.003906 4.984375 -5.734375 C 5.441406 -5.472656 5.800781 -5.109375 6.0625 -4.640625 C 6.332031 -4.179688 6.46875 -3.671875 6.46875 -3.109375 C 6.46875 -2.515625 6.332031 -1.960938 6.0625 -1.453125 C 5.800781 -0.941406 5.441406 -0.539062 4.984375 -0.25 C 4.523438 0.0390625 4.019531 0.1875 3.46875 0.1875 Z M 3.5625 -0.28125 C 4.144531 -0.28125 4.570312 -0.519531 4.84375 -1 C 5.113281 -1.476562 5.25 -2.066406 5.25 -2.765625 C 5.25 -3.566406 5.097656 -4.253906 4.796875 -4.828125 C 4.503906 -5.398438 4.0625 -5.6875 3.46875 -5.6875 C 2.882812 -5.6875 2.441406 -5.441406 2.140625 -4.953125 C 1.847656 -4.472656 1.703125 -3.878906 1.703125 -3.171875 C 1.703125 -2.660156 1.769531 -2.1875 1.90625 -1.75 C 2.039062 -1.3125 2.25 -0.957031 2.53125 -0.6875 C 2.8125 -0.414062 3.15625 -0.28125 3.5625 -0.28125 Z M 3.5625 -0.28125 "/></g></g></g><g fill="#ffffff" fill-opacity="1"><g transform="translate(116.524843, 61.41103)"><g><path d="M 0.40625 -0.359375 C 0.632812 -0.359375 0.796875 -0.414062 0.890625 -0.53125 C 0.992188 -0.644531 1.054688 -0.789062 1.078125 -0.96875 C 1.097656 -1.144531 1.109375 -1.425781 1.109375 -1.8125 L 1.109375 -7.4375 C 1.109375 -7.738281 1.117188 -7.992188 1.140625 -8.203125 L 0.296875 -8.15625 L 0.296875 -8.65625 C 0.773438 -8.65625 1.113281 -8.679688 1.3125 -8.734375 C 1.507812 -8.796875 1.664062 -8.878906 1.78125 -8.984375 L 2.125 -8.984375 L 2.140625 -1.265625 C 2.140625 -0.953125 2.117188 -0.679688 2.078125 -0.453125 L 2.828125 -0.484375 L 2.828125 0 L 0.40625 0 Z M 0.40625 -0.359375 "/></g></g></g><g fill="#ffffff" fill-opacity="1"><g transform="translate(119.497068, 61.41103)"><g><path d="M 0.40625 -0.359375 C 0.632812 -0.359375 0.796875 -0.414062 0.890625 -0.53125 C 0.992188 -0.644531 1.054688 -0.789062 1.078125 -0.96875 C 1.097656 -1.144531 1.109375 -1.425781 1.109375 -1.8125 L 1.109375 -7.4375 C 1.109375 -7.738281 1.117188 -7.992188 1.140625 -8.203125 L 0.296875 -8.15625 L 0.296875 -8.65625 C 0.773438 -8.65625 1.113281 -8.679688 1.3125 -8.734375 C 1.507812 -8.796875 1.664062 -8.878906 1.78125 -8.984375 L 2.125 -8.984375 L 2.140625 -1.265625 C 2.140625 -0.953125 2.117188 -0.679688 2.078125 -0.453125 L 2.828125 -0.484375 L 2.828125 0 L 0.40625 0 Z M 0.40625 -0.359375 "/></g></g></g><g fill="#ffffff" fill-opacity="1"><g transform="translate(122.469292, 61.41103)"><g><path d="M 3.46875 0.1875 C 2.925781 0.1875 2.425781 0.0625 1.96875 -0.1875 C 1.507812 -0.445312 1.144531 -0.804688 0.875 -1.265625 C 0.613281 -1.734375 0.484375 -2.253906 0.484375 -2.828125 C 0.484375 -3.441406 0.613281 -4 0.875 -4.5 C 1.132812 -5.007812 1.492188 -5.410156 1.953125 -5.703125 C 2.410156 -5.992188 2.914062 -6.140625 3.46875 -6.140625 C 4.019531 -6.140625 4.523438 -6.003906 4.984375 -5.734375 C 5.441406 -5.472656 5.800781 -5.109375 6.0625 -4.640625 C 6.332031 -4.179688 6.46875 -3.671875 6.46875 -3.109375 C 6.46875 -2.515625 6.332031 -1.960938 6.0625 -1.453125 C 5.800781 -0.941406 5.441406 -0.539062 4.984375 -0.25 C 4.523438 0.0390625 4.019531 0.1875 3.46875 0.1875 Z M 3.5625 -0.28125 C 4.144531 -0.28125 4.570312 -0.519531 4.84375 -1 C 5.113281 -1.476562 5.25 -2.066406 5.25 -2.765625 C 5.25 -3.566406 5.097656 -4.253906 4.796875 -4.828125 C 4.503906 -5.398438 4.0625 -5.6875 3.46875 -5.6875 C 2.882812 -5.6875 2.441406 -5.441406 2.140625 -4.953125 C 1.847656 -4.472656 1.703125 -3.878906 1.703125 -3.171875 C 1.703125 -2.660156 1.769531 -2.1875 1.90625 -1.75 C 2.039062 -1.3125 2.25 -0.957031 2.53125 -0.6875 C 2.8125 -0.414062 3.15625 -0.28125 3.5625 -0.28125 Z M 3.5625 -0.28125 "/></g></g></g><g fill="#ffffff" fill-opacity="1"><g transform="translate(129.16275, 61.41103)"><g/></g></g><g fill="#ffffff" fill-opacity="1"><g transform="translate(132.02798, 61.41103)"><g><path d="M 1.25 -6.203125 L 1.09375 -6.671875 C 0.90625 -7.265625 0.789062 -7.648438 0.75 -7.828125 L 0.078125 -7.796875 L 0.078125 -8.328125 L 2.96875 -8.328125 L 2.96875 -7.9375 C 2.644531 -7.914062 2.414062 -7.859375 2.28125 -7.765625 C 2.144531 -7.679688 2.078125 -7.535156 2.078125 -7.328125 C 2.078125 -7.140625 2.117188 -6.910156 2.203125 -6.640625 C 2.335938 -6.109375 2.523438 -5.507812 2.765625 -4.84375 C 2.804688 -4.726562 2.851562 -4.585938 2.90625 -4.421875 C 2.96875 -4.265625 3.035156 -4.078125 3.109375 -3.859375 C 3.148438 -3.691406 3.207031 -3.507812 3.28125 -3.3125 C 3.351562 -3.113281 3.40625 -2.972656 3.4375 -2.890625 C 3.59375 -2.460938 3.710938 -2.117188 3.796875 -1.859375 L 3.8125 -1.859375 C 3.976562 -2.398438 4.140625 -2.925781 4.296875 -3.4375 C 4.585938 -4.351562 4.90625 -5.320312 5.25 -6.34375 C 5.601562 -7.414062 5.816406 -8.082031 5.890625 -8.34375 L 6.265625 -8.34375 C 6.359375 -8.019531 6.519531 -7.507812 6.75 -6.8125 C 6.976562 -6.125 7.144531 -5.625 7.25 -5.3125 C 7.488281 -4.632812 7.648438 -4.148438 7.734375 -3.859375 C 7.804688 -3.648438 7.910156 -3.332031 8.046875 -2.90625 C 8.203125 -2.445312 8.332031 -2.050781 8.4375 -1.71875 L 8.46875 -1.71875 C 8.65625 -2.34375 8.816406 -2.859375 8.953125 -3.265625 C 9.359375 -4.410156 9.6875 -5.398438 9.9375 -6.234375 C 10.03125 -6.523438 10.109375 -6.769531 10.171875 -6.96875 C 10.328125 -7.375 10.453125 -7.664062 10.546875 -7.84375 L 9.59375 -7.796875 L 9.59375 -8.328125 L 12.015625 -8.328125 L 12.015625 -7.9375 C 11.722656 -7.90625 11.503906 -7.84375 11.359375 -7.75 C 11.210938 -7.664062 11.082031 -7.507812 10.96875 -7.28125 C 10.851562 -7.050781 10.707031 -6.679688 10.53125 -6.171875 L 9.921875 -4.359375 C 9.296875 -2.429688 8.785156 -0.9375 8.390625 0.125 L 8.03125 0.125 L 5.8125 -6.25 L 3.71875 0.125 L 3.375 0.125 Z M 1.25 -6.203125 "/></g></g></g><g fill="#ffffff" fill-opacity="1"><g transform="translate(143.595891, 61.41103)"><g><path d="M 3.40625 0.1875 C 2.851562 0.1875 2.359375 0.0625 1.921875 -0.1875 C 1.484375 -0.445312 1.132812 -0.816406 0.875 -1.296875 C 0.625 -1.773438 0.5 -2.328125 0.5 -2.953125 C 0.5 -3.515625 0.625 -4.035156 0.875 -4.515625 C 1.132812 -5.003906 1.488281 -5.394531 1.9375 -5.6875 C 2.394531 -5.988281 2.914062 -6.140625 3.5 -6.140625 C 3.945312 -6.140625 4.351562 -6.039062 4.71875 -5.84375 C 5.082031 -5.644531 5.367188 -5.347656 5.578125 -4.953125 C 5.796875 -4.554688 5.90625 -4.070312 5.90625 -3.5 L 1.71875 -3.4375 C 1.71875 -2.488281 1.875 -1.75 2.1875 -1.21875 C 2.507812 -0.6875 3.007812 -0.421875 3.6875 -0.421875 C 4.050781 -0.421875 4.425781 -0.515625 4.8125 -0.703125 C 5.195312 -0.890625 5.492188 -1.125 5.703125 -1.40625 L 5.984375 -1.171875 C 5.679688 -0.703125 5.289062 -0.359375 4.8125 -0.140625 C 4.332031 0.078125 3.863281 0.1875 3.40625 0.1875 Z M 4.796875 -3.9375 C 4.796875 -4.414062 4.6875 -4.820312 4.46875 -5.15625 C 4.257812 -5.5 3.9375 -5.671875 3.5 -5.671875 C 2.519531 -5.671875 1.941406 -5.09375 1.765625 -3.9375 Z M 4.796875 -3.9375 "/></g></g></g><g fill="#ffffff" fill-opacity="1"><g transform="translate(149.778123, 61.41103)"><g><path d="M 3.328125 0.1875 C 3.015625 0.1875 2.703125 0.128906 2.390625 0.015625 C 2.078125 -0.0859375 1.804688 -0.269531 1.578125 -0.53125 L 1.296875 0 L 0.875 0 L 0.90625 -7.4375 C 0.90625 -7.738281 0.914062 -7.992188 0.9375 -8.203125 L 0.09375 -8.15625 L 0.09375 -8.65625 C 0.570312 -8.65625 0.910156 -8.679688 1.109375 -8.734375 C 1.316406 -8.796875 1.472656 -8.878906 1.578125 -8.984375 L 1.921875 -8.984375 L 1.921875 -5.4375 C 2.148438 -5.65625 2.414062 -5.828125 2.71875 -5.953125 C 3.019531 -6.078125 3.351562 -6.140625 3.71875 -6.140625 C 4.226562 -6.140625 4.6875 -6.015625 5.09375 -5.765625 C 5.507812 -5.515625 5.832031 -5.160156 6.0625 -4.703125 C 6.300781 -4.242188 6.421875 -3.710938 6.421875 -3.109375 C 6.421875 -2.453125 6.273438 -1.875 5.984375 -1.375 C 5.703125 -0.875 5.320312 -0.488281 4.84375 -0.21875 C 4.375 0.0507812 3.867188 0.1875 3.328125 0.1875 Z M 3.328125 -0.296875 C 3.898438 -0.296875 4.351562 -0.523438 4.6875 -0.984375 C 5.03125 -1.453125 5.203125 -2.0625 5.203125 -2.8125 C 5.203125 -3.644531 5.046875 -4.304688 4.734375 -4.796875 C 4.421875 -5.296875 3.960938 -5.546875 3.359375 -5.546875 C 3.097656 -5.546875 2.835938 -5.484375 2.578125 -5.359375 C 2.328125 -5.242188 2.109375 -5.082031 1.921875 -4.875 L 1.921875 -1.859375 C 1.921875 -0.816406 2.390625 -0.296875 3.328125 -0.296875 Z M 3.328125 -0.296875 "/></g></g></g><g fill="#ffffff" fill-opacity="1"><g transform="translate(156.446444, 61.41103)"><g/></g></g><g fill="#ffffff" fill-opacity="1"><g transform="translate(159.311672, 61.41103)"><g><path d="M 3.21875 0.1875 C 2.726562 0.1875 2.269531 0.109375 1.84375 -0.046875 C 1.425781 -0.210938 1.082031 -0.46875 0.8125 -0.8125 C 0.550781 -1.164062 0.421875 -1.609375 0.421875 -2.140625 C 0.421875 -2.640625 0.585938 -3.085938 0.921875 -3.484375 C 1.253906 -3.890625 1.710938 -4.21875 2.296875 -4.46875 C 1.972656 -4.875 1.738281 -5.242188 1.59375 -5.578125 C 1.457031 -5.921875 1.390625 -6.273438 1.390625 -6.640625 C 1.398438 -7.203125 1.609375 -7.65625 2.015625 -8 C 2.421875 -8.34375 2.945312 -8.515625 3.59375 -8.515625 C 3.976562 -8.515625 4.320312 -8.441406 4.625 -8.296875 C 4.925781 -8.148438 5.160156 -7.945312 5.328125 -7.6875 C 5.492188 -7.4375 5.578125 -7.15625 5.578125 -6.84375 C 5.578125 -6.382812 5.421875 -5.960938 5.109375 -5.578125 C 4.804688 -5.191406 4.3125 -4.828125 3.625 -4.484375 C 3.8125 -4.273438 4.128906 -3.941406 4.578125 -3.484375 C 4.921875 -3.128906 5.335938 -2.722656 5.828125 -2.265625 C 5.910156 -2.523438 5.953125 -2.773438 5.953125 -3.015625 C 5.953125 -3.335938 5.878906 -3.613281 5.734375 -3.84375 C 5.597656 -4.070312 5.367188 -4.191406 5.046875 -4.203125 L 5.046875 -4.609375 L 7.125 -4.609375 L 7.125 -4.109375 L 6.140625 -4.15625 C 6.378906 -3.945312 6.5 -3.59375 6.5 -3.09375 C 6.5 -2.695312 6.421875 -2.285156 6.265625 -1.859375 L 6.5 -1.65625 C 6.613281 -1.550781 6.734375 -1.441406 6.859375 -1.328125 C 7.203125 -1.023438 7.503906 -0.789062 7.765625 -0.625 C 8.023438 -0.46875 8.222656 -0.390625 8.359375 -0.390625 L 8.359375 0 L 7.25 0 C 7.164062 0 6.992188 -0.0820312 6.734375 -0.25 C 6.472656 -0.414062 6.15625 -0.660156 5.78125 -0.984375 C 5.164062 -0.203125 4.3125 0.1875 3.21875 0.1875 Z M 3.359375 -4.765625 C 3.785156 -5.054688 4.109375 -5.378906 4.328125 -5.734375 C 4.554688 -6.085938 4.671875 -6.445312 4.671875 -6.8125 C 4.671875 -7.195312 4.566406 -7.515625 4.359375 -7.765625 C 4.160156 -8.015625 3.882812 -8.140625 3.53125 -8.140625 C 3.195312 -8.140625 2.921875 -8.015625 2.703125 -7.765625 C 2.492188 -7.515625 2.390625 -7.171875 2.390625 -6.734375 C 2.390625 -6.140625 2.710938 -5.484375 3.359375 -4.765625 Z M 3.484375 -0.40625 C 4.296875 -0.40625 4.929688 -0.707031 5.390625 -1.3125 C 5.234375 -1.457031 5.117188 -1.566406 5.046875 -1.640625 L 4.875 -1.8125 C 4.757812 -1.925781 4.425781 -2.25 3.875 -2.78125 C 3.332031 -3.320312 2.910156 -3.769531 2.609375 -4.125 C 2.265625 -3.914062 2.007812 -3.640625 1.84375 -3.296875 C 1.6875 -2.953125 1.609375 -2.625 1.609375 -2.3125 C 1.609375 -1.6875 1.789062 -1.210938 2.15625 -0.890625 C 2.53125 -0.566406 2.972656 -0.40625 3.484375 -0.40625 Z M 3.484375 -0.40625 "/></g></g></g><g fill="#ffffff" fill-opacity="1"><g transform="translate(167.312913, 61.41103)"><g/></g></g><g fill="#ffffff" fill-opacity="1"><g transform="translate(170.178141, 61.41103)"><g><path d="M 4.46875 -1.375 C 3.863281 -2.707031 3.394531 -3.757812 3.0625 -4.53125 C 2.726562 -5.3125 2.40625 -6.128906 2.09375 -6.984375 L 2.078125 -6.453125 C 2.003906 -4.128906 1.960938 -2.472656 1.953125 -1.484375 C 1.953125 -1.367188 1.945312 -1.28125 1.9375 -1.21875 C 1.9375 -0.957031 1.925781 -0.707031 1.90625 -0.46875 L 2.796875 -0.515625 L 2.796875 0 L 0.515625 0 L 0.515625 -0.390625 C 0.847656 -0.398438 1.0625 -0.492188 1.15625 -0.671875 C 1.257812 -0.847656 1.320312 -1.117188 1.34375 -1.484375 L 1.609375 -7.84375 L 0.75 -7.8125 L 0.75 -8.328125 L 2.5625 -8.328125 L 4.1875 -4.59375 C 4.769531 -3.207031 5.222656 -2.160156 5.546875 -1.453125 L 5.5625 -1.453125 C 5.65625 -1.691406 5.859375 -2.203125 6.171875 -2.984375 C 6.472656 -3.742188 6.816406 -4.582031 7.203125 -5.5 C 7.660156 -6.5625 8.050781 -7.503906 8.375 -8.328125 L 10.125 -8.328125 L 10.125 -7.9375 C 9.84375 -7.9375 9.632812 -7.851562 9.5 -7.6875 C 9.363281 -7.53125 9.296875 -7.257812 9.296875 -6.875 L 9.3125 -6.640625 L 9.625 -1.21875 C 9.632812 -1.039062 9.640625 -0.796875 9.640625 -0.484375 L 10.515625 -0.515625 L 10.515625 0 L 7.84375 0 L 7.84375 -0.390625 C 8.15625 -0.398438 8.363281 -0.488281 8.46875 -0.65625 C 8.582031 -0.832031 8.640625 -1.101562 8.640625 -1.46875 C 8.640625 -1.613281 8.632812 -1.726562 8.625 -1.8125 L 8.328125 -6.875 C 8.304688 -6.832031 8.28125 -6.78125 8.25 -6.71875 C 8.226562 -6.65625 8.203125 -6.582031 8.171875 -6.5 L 5.5 0.125 L 5.140625 0.125 Z M 4.46875 -1.375 "/></g></g></g><g fill="#ffffff" fill-opacity="1"><g transform="translate(180.830609, 61.41103)"><g><path d="M 3.46875 0.1875 C 2.925781 0.1875 2.425781 0.0625 1.96875 -0.1875 C 1.507812 -0.445312 1.144531 -0.804688 0.875 -1.265625 C 0.613281 -1.734375 0.484375 -2.253906 0.484375 -2.828125 C 0.484375 -3.441406 0.613281 -4 0.875 -4.5 C 1.132812 -5.007812 1.492188 -5.410156 1.953125 -5.703125 C 2.410156 -5.992188 2.914062 -6.140625 3.46875 -6.140625 C 4.019531 -6.140625 4.523438 -6.003906 4.984375 -5.734375 C 5.441406 -5.472656 5.800781 -5.109375 6.0625 -4.640625 C 6.332031 -4.179688 6.46875 -3.671875 6.46875 -3.109375 C 6.46875 -2.515625 6.332031 -1.960938 6.0625 -1.453125 C 5.800781 -0.941406 5.441406 -0.539062 4.984375 -0.25 C 4.523438 0.0390625 4.019531 0.1875 3.46875 0.1875 Z M 3.5625 -0.28125 C 4.144531 -0.28125 4.570312 -0.519531 4.84375 -1 C 5.113281 -1.476562 5.25 -2.066406 5.25 -2.765625 C 5.25 -3.566406 5.097656 -4.253906 4.796875 -4.828125 C 4.503906 -5.398438 4.0625 -5.6875 3.46875 -5.6875 C 2.882812 -5.6875 2.441406 -5.441406 2.140625 -4.953125 C 1.847656 -4.472656 1.703125 -3.878906 1.703125 -3.171875 C 1.703125 -2.660156 1.769531 -2.1875 1.90625 -1.75 C 2.039062 -1.3125 2.25 -0.957031 2.53125 -0.6875 C 2.8125 -0.414062 3.15625 -0.28125 3.5625 -0.28125 Z M 3.5625 -0.28125 "/></g></g></g><g fill="#ffffff" fill-opacity="1"><g transform="translate(187.524063, 61.41103)"><g><path d="M 3.328125 0.1875 C 3.015625 0.1875 2.703125 0.128906 2.390625 0.015625 C 2.078125 -0.0859375 1.804688 -0.269531 1.578125 -0.53125 L 1.296875 0 L 0.875 0 L 0.90625 -7.4375 C 0.90625 -7.738281 0.914062 -7.992188 0.9375 -8.203125 L 0.09375 -8.15625 L 0.09375 -8.65625 C 0.570312 -8.65625 0.910156 -8.679688 1.109375 -8.734375 C 1.316406 -8.796875 1.472656 -8.878906 1.578125 -8.984375 L 1.921875 -8.984375 L 1.921875 -5.4375 C 2.148438 -5.65625 2.414062 -5.828125 2.71875 -5.953125 C 3.019531 -6.078125 3.351562 -6.140625 3.71875 -6.140625 C 4.226562 -6.140625 4.6875 -6.015625 5.09375 -5.765625 C 5.507812 -5.515625 5.832031 -5.160156 6.0625 -4.703125 C 6.300781 -4.242188 6.421875 -3.710938 6.421875 -3.109375 C 6.421875 -2.453125 6.273438 -1.875 5.984375 -1.375 C 5.703125 -0.875 5.320312 -0.488281 4.84375 -0.21875 C 4.375 0.0507812 3.867188 0.1875 3.328125 0.1875 Z M 3.328125 -0.296875 C 3.898438 -0.296875 4.351562 -0.523438 4.6875 -0.984375 C 5.03125 -1.453125 5.203125 -2.0625 5.203125 -2.8125 C 5.203125 -3.644531 5.046875 -4.304688 4.734375 -4.796875 C 4.421875 -5.296875 3.960938 -5.546875 3.359375 -5.546875 C 3.097656 -5.546875 2.835938 -5.484375 2.578125 -5.359375 C 2.328125 -5.242188 2.109375 -5.082031 1.921875 -4.875 L 1.921875 -1.859375 C 1.921875 -0.816406 2.390625 -0.296875 3.328125 -0.296875 Z M 3.328125 -0.296875 "/></g></g></g><g fill="#ffffff" fill-opacity="1"><g transform="translate(194.181848, 61.41103)"><g><path d="M 1.703125 -7.234375 C 1.535156 -7.234375 1.382812 -7.300781 1.25 -7.4375 C 1.125 -7.582031 1.0625 -7.75 1.0625 -7.9375 C 1.0625 -8.132812 1.128906 -8.300781 1.265625 -8.4375 C 1.398438 -8.582031 1.550781 -8.65625 1.71875 -8.65625 C 1.894531 -8.65625 2.046875 -8.582031 2.171875 -8.4375 C 2.296875 -8.300781 2.359375 -8.132812 2.359375 -7.9375 C 2.359375 -7.75 2.289062 -7.582031 2.15625 -7.4375 C 2.03125 -7.300781 1.878906 -7.234375 1.703125 -7.234375 Z M 0.515625 -0.359375 C 0.753906 -0.359375 0.921875 -0.414062 1.015625 -0.53125 C 1.117188 -0.644531 1.175781 -0.789062 1.1875 -0.96875 C 1.207031 -1.144531 1.21875 -1.425781 1.21875 -1.8125 L 1.21875 -4.515625 C 1.21875 -4.742188 1.234375 -5.003906 1.265625 -5.296875 L 0.421875 -5.25 L 0.421875 -5.75 C 0.890625 -5.75 1.222656 -5.773438 1.421875 -5.828125 C 1.628906 -5.878906 1.789062 -5.957031 1.90625 -6.0625 L 2.25 -6.0625 L 2.25 -1.265625 C 2.25 -0.898438 2.234375 -0.628906 2.203125 -0.453125 L 2.953125 -0.484375 L 2.953125 0 L 0.515625 0 Z M 0.515625 -0.359375 "/></g></g></g><g fill="#ffffff" fill-opacity="1"><g transform="translate(197.261071, 61.41103)"><g><path d="M 0.40625 -0.359375 C 0.632812 -0.359375 0.796875 -0.414062 0.890625 -0.53125 C 0.992188 -0.644531 1.054688 -0.789062 1.078125 -0.96875 C 1.097656 -1.144531 1.109375 -1.425781 1.109375 -1.8125 L 1.109375 -7.4375 C 1.109375 -7.738281 1.117188 -7.992188 1.140625 -8.203125 L 0.296875 -8.15625 L 0.296875 -8.65625 C 0.773438 -8.65625 1.113281 -8.679688 1.3125 -8.734375 C 1.507812 -8.796875 1.664062 -8.878906 1.78125 -8.984375 L 2.125 -8.984375 L 2.140625 -1.265625 C 2.140625 -0.953125 2.117188 -0.679688 2.078125 -0.453125 L 2.828125 -0.484375 L 2.828125 0 L 0.40625 0 Z M 0.40625 -0.359375 "/></g></g></g><g fill="#ffffff" fill-opacity="1"><g transform="translate(200.233296, 61.41103)"><g><path d="M 3.40625 0.1875 C 2.851562 0.1875 2.359375 0.0625 1.921875 -0.1875 C 1.484375 -0.445312 1.132812 -0.816406 0.875 -1.296875 C 0.625 -1.773438 0.5 -2.328125 0.5 -2.953125 C 0.5 -3.515625 0.625 -4.035156 0.875 -4.515625 C 1.132812 -5.003906 1.488281 -5.394531 1.9375 -5.6875 C 2.394531 -5.988281 2.914062 -6.140625 3.5 -6.140625 C 3.945312 -6.140625 4.351562 -6.039062 4.71875 -5.84375 C 5.082031 -5.644531 5.367188 -5.347656 5.578125 -4.953125 C 5.796875 -4.554688 5.90625 -4.070312 5.90625 -3.5 L 1.71875 -3.4375 C 1.71875 -2.488281 1.875 -1.75 2.1875 -1.21875 C 2.507812 -0.6875 3.007812 -0.421875 3.6875 -0.421875 C 4.050781 -0.421875 4.425781 -0.515625 4.8125 -0.703125 C 5.195312 -0.890625 5.492188 -1.125 5.703125 -1.40625 L 5.984375 -1.171875 C 5.679688 -0.703125 5.289062 -0.359375 4.8125 -0.140625 C 4.332031 0.078125 3.863281 0.1875 3.40625 0.1875 Z M 4.796875 -3.9375 C 4.796875 -4.414062 4.6875 -4.820312 4.46875 -5.15625 C 4.257812 -5.5 3.9375 -5.671875 3.5 -5.671875 C 2.519531 -5.671875 1.941406 -5.09375 1.765625 -3.9375 Z M 4.796875 -3.9375 "/></g></g></g></svg>