<svg xmlns="http://www.w3.org/2000/svg" xmlns:xlink="http://www.w3.org/1999/xlink" width="500" zoomAndPan="magnify" viewBox="0 0 375 374.999991" height="500" preserveAspectRatio="xMidYMid meet" version="1.0"><defs><g/><clipPath id="95fb5ecbe3"><path d="M 74.144531 129.265625 L 138.644531 129.265625 L 138.644531 208.765625 L 74.144531 208.765625 Z M 74.144531 129.265625 " clip-rule="nonzero"/></clipPath></defs><g clip-path="url(#95fb5ecbe3)"><path fill="#2f6047" d="M 138.894531 176.445312 C 138.894531 194.328125 124.398438 208.820312 106.519531 208.820312 C 100.097656 208.820312 94.117188 206.941406 89.074219 203.714844 L 89.074219 194.222656 C 93.570312 198.628906 99.722656 201.351562 106.519531 201.351562 C 120.269531 201.351562 131.429688 190.199219 131.429688 176.445312 C 131.429688 162.6875 120.269531 151.535156 106.519531 151.535156 C 99.722656 151.535156 93.570312 154.257812 89.074219 158.664062 C 84.476562 163.1875 81.605469 169.480469 81.605469 176.445312 L 81.605469 197.125 C 76.949219 191.515625 74.144531 184.304688 74.144531 176.445312 L 74.144531 135.066406 L 81.605469 129.28125 L 81.605469 155.761719 C 83.746094 153.199219 86.261719 150.980469 89.074219 149.175781 C 94.113281 145.949219 100.097656 144.0625 106.519531 144.0625 C 124.398438 144.066406 138.894531 158.566406 138.894531 176.445312 Z M 138.894531 176.445312 " fill-opacity="1" fill-rule="nonzero"/></g><path fill="#320b2a" d="M 122.492188 176.445312 C 122.492188 185.265625 115.335938 192.410156 106.519531 192.410156 C 97.699219 192.410156 90.546875 185.265625 90.546875 176.445312 C 90.546875 167.628906 97.699219 160.472656 106.519531 160.472656 C 115.335938 160.472656 122.492188 167.628906 122.492188 176.445312 Z M 122.492188 176.445312 " fill-opacity="1" fill-rule="nonzero"/><g fill="#320b2a" fill-opacity="1"><g transform="translate(148.096783, 175.84033)"><g><path d="M 1.5 0 L 1.5 -15.40625 L 7.671875 -15.40625 C 9.273438 -15.40625 10.5 -15.03125 11.34375 -14.28125 C 12.1875 -13.539062 12.609375 -12.59375 12.609375 -11.4375 C 12.609375 -10.46875 12.347656 -9.691406 11.828125 -9.109375 C 11.304688 -8.535156 10.671875 -8.144531 9.921875 -7.9375 C 10.796875 -7.757812 11.519531 -7.320312 12.09375 -6.625 C 12.664062 -5.9375 12.953125 -5.128906 12.953125 -4.203125 C 12.953125 -2.984375 12.507812 -1.976562 11.625 -1.1875 C 10.75 -0.394531 9.503906 0 7.890625 0 Z M 4.3125 -8.9375 L 7.265625 -8.9375 C 8.054688 -8.9375 8.660156 -9.117188 9.078125 -9.484375 C 9.503906 -9.847656 9.71875 -10.367188 9.71875 -11.046875 C 9.71875 -11.691406 9.507812 -12.203125 9.09375 -12.578125 C 8.675781 -12.953125 8.050781 -13.140625 7.21875 -13.140625 L 4.3125 -13.140625 Z M 4.3125 -2.28125 L 7.453125 -2.28125 C 8.296875 -2.28125 8.945312 -2.472656 9.40625 -2.859375 C 9.863281 -3.253906 10.09375 -3.804688 10.09375 -4.515625 C 10.09375 -5.234375 9.847656 -5.796875 9.359375 -6.203125 C 8.878906 -6.609375 8.226562 -6.8125 7.40625 -6.8125 L 4.3125 -6.8125 Z M 4.3125 -2.28125 "/></g></g></g><g fill="#320b2a" fill-opacity="1"><g transform="translate(161.492314, 175.84033)"><g><path d="M 1.4375 0 L 1.4375 -10.90625 L 3.9375 -10.90625 L 4.203125 -8.859375 C 4.597656 -9.566406 5.132812 -10.128906 5.8125 -10.546875 C 6.5 -10.960938 7.304688 -11.171875 8.234375 -11.171875 L 8.234375 -8.203125 L 7.4375 -8.203125 C 6.820312 -8.203125 6.269531 -8.109375 5.78125 -7.921875 C 5.300781 -7.734375 4.925781 -7.398438 4.65625 -6.921875 C 4.382812 -6.453125 4.25 -5.800781 4.25 -4.96875 L 4.25 0 Z M 1.4375 0 "/></g></g></g><g fill="#320b2a" fill-opacity="1"><g transform="translate(169.718768, 175.84033)"><g><path d="M 5.515625 0.265625 C 4.148438 0.265625 3.097656 -0.15625 2.359375 -1 C 1.617188 -1.851562 1.25 -3.101562 1.25 -4.75 L 1.25 -10.90625 L 4.046875 -10.90625 L 4.046875 -5.015625 C 4.046875 -4.078125 4.234375 -3.359375 4.609375 -2.859375 C 4.992188 -2.359375 5.597656 -2.109375 6.421875 -2.109375 C 7.203125 -2.109375 7.84375 -2.382812 8.34375 -2.9375 C 8.851562 -3.5 9.109375 -4.28125 9.109375 -5.28125 L 9.109375 -10.90625 L 11.921875 -10.90625 L 11.921875 0 L 9.4375 0 L 9.21875 -1.84375 C 8.882812 -1.195312 8.394531 -0.679688 7.75 -0.296875 C 7.113281 0.078125 6.367188 0.265625 5.515625 0.265625 Z M 5.515625 0.265625 "/></g></g></g><g fill="#320b2a" fill-opacity="1"><g transform="translate(182.608391, 175.84033)"><g><path d="M 1.4375 0 L 1.4375 -10.90625 L 3.921875 -10.90625 L 4.140625 -9.0625 C 4.472656 -9.707031 4.957031 -10.21875 5.59375 -10.59375 C 6.238281 -10.976562 6.992188 -11.171875 7.859375 -11.171875 C 9.203125 -11.171875 10.25 -10.742188 11 -9.890625 C 11.75 -9.046875 12.125 -7.800781 12.125 -6.15625 L 12.125 0 L 9.3125 0 L 9.3125 -5.890625 C 9.3125 -6.828125 9.117188 -7.546875 8.734375 -8.046875 C 8.347656 -8.546875 7.753906 -8.796875 6.953125 -8.796875 C 6.160156 -8.796875 5.507812 -8.515625 5 -7.953125 C 4.5 -7.398438 4.25 -6.625 4.25 -5.625 L 4.25 0 Z M 1.4375 0 "/></g></g></g><g fill="#320b2a" fill-opacity="1"><g transform="translate(195.498013, 175.84033)"><g><path d="M 6.671875 0.265625 C 5.609375 0.265625 4.65625 0.0234375 3.8125 -0.453125 C 2.96875 -0.941406 2.300781 -1.613281 1.8125 -2.46875 C 1.320312 -3.332031 1.078125 -4.328125 1.078125 -5.453125 C 1.078125 -6.585938 1.328125 -7.582031 1.828125 -8.4375 C 2.328125 -9.289062 3 -9.957031 3.84375 -10.4375 C 4.6875 -10.925781 5.632812 -11.171875 6.6875 -11.171875 C 7.726562 -11.171875 8.671875 -10.925781 9.515625 -10.4375 C 10.359375 -9.957031 11.023438 -9.289062 11.515625 -8.4375 C 12.003906 -7.582031 12.25 -6.585938 12.25 -5.453125 C 12.25 -4.328125 12.003906 -3.332031 11.515625 -2.46875 C 11.023438 -1.613281 10.351562 -0.941406 9.5 -0.453125 C 8.65625 0.0234375 7.710938 0.265625 6.671875 0.265625 Z M 6.671875 -2.171875 C 7.398438 -2.171875 8.035156 -2.445312 8.578125 -3 C 9.117188 -3.550781 9.390625 -4.367188 9.390625 -5.453125 C 9.390625 -6.535156 9.117188 -7.351562 8.578125 -7.90625 C 8.035156 -8.457031 7.40625 -8.734375 6.6875 -8.734375 C 5.9375 -8.734375 5.289062 -8.457031 4.75 -7.90625 C 4.21875 -7.351562 3.953125 -6.535156 3.953125 -5.453125 C 3.953125 -4.367188 4.21875 -3.550781 4.75 -3 C 5.289062 -2.445312 5.929688 -2.171875 6.671875 -2.171875 Z M 6.671875 -2.171875 "/></g></g></g><g fill="#320b2a" fill-opacity="1"><g transform="translate(208.343634, 175.84033)"><g/></g></g><g fill="#320b2a" fill-opacity="1"><g transform="translate(213.0947, 175.84033)"><g><path d="M 1.5 0 L 1.5 -15.40625 L 7.1875 -15.40625 C 8.425781 -15.40625 9.445312 -15.195312 10.25 -14.78125 C 11.0625 -14.375 11.664062 -13.8125 12.0625 -13.09375 C 12.457031 -12.375 12.65625 -11.566406 12.65625 -10.671875 C 12.65625 -9.816406 12.460938 -9.035156 12.078125 -8.328125 C 11.691406 -7.617188 11.097656 -7.046875 10.296875 -6.609375 C 9.492188 -6.179688 8.457031 -5.96875 7.1875 -5.96875 L 4.3125 -5.96875 L 4.3125 0 Z M 4.3125 -8.25 L 7.015625 -8.25 C 7.992188 -8.25 8.703125 -8.460938 9.140625 -8.890625 C 9.578125 -9.328125 9.796875 -9.921875 9.796875 -10.671875 C 9.796875 -11.429688 9.578125 -12.023438 9.140625 -12.453125 C 8.703125 -12.890625 7.992188 -13.109375 7.015625 -13.109375 L 4.3125 -13.109375 Z M 4.3125 -8.25 "/></g></g></g><g fill="#320b2a" fill-opacity="1"><g transform="translate(225.962315, 175.84033)"><g><path d="M 2.953125 -12.609375 C 2.429688 -12.609375 2.003906 -12.757812 1.671875 -13.0625 C 1.347656 -13.375 1.1875 -13.765625 1.1875 -14.234375 C 1.1875 -14.703125 1.347656 -15.085938 1.671875 -15.390625 C 2.003906 -15.691406 2.429688 -15.84375 2.953125 -15.84375 C 3.460938 -15.84375 3.878906 -15.691406 4.203125 -15.390625 C 4.535156 -15.085938 4.703125 -14.703125 4.703125 -14.234375 C 4.703125 -13.765625 4.535156 -13.375 4.203125 -13.0625 C 3.878906 -12.757812 3.460938 -12.609375 2.953125 -12.609375 Z M 1.546875 0 L 1.546875 -10.90625 L 4.359375 -10.90625 L 4.359375 0 Z M 1.546875 0 "/></g></g></g><g fill="#320b2a" fill-opacity="1"><g transform="translate(231.351275, 175.84033)"><g><path d="M 6.671875 0.265625 C 5.609375 0.265625 4.65625 0.0234375 3.8125 -0.453125 C 2.96875 -0.941406 2.300781 -1.613281 1.8125 -2.46875 C 1.320312 -3.332031 1.078125 -4.328125 1.078125 -5.453125 C 1.078125 -6.585938 1.328125 -7.582031 1.828125 -8.4375 C 2.328125 -9.289062 3 -9.957031 3.84375 -10.4375 C 4.6875 -10.925781 5.632812 -11.171875 6.6875 -11.171875 C 7.726562 -11.171875 8.671875 -10.925781 9.515625 -10.4375 C 10.359375 -9.957031 11.023438 -9.289062 11.515625 -8.4375 C 12.003906 -7.582031 12.25 -6.585938 12.25 -5.453125 C 12.25 -4.328125 12.003906 -3.332031 11.515625 -2.46875 C 11.023438 -1.613281 10.351562 -0.941406 9.5 -0.453125 C 8.65625 0.0234375 7.710938 0.265625 6.671875 0.265625 Z M 6.671875 -2.171875 C 7.398438 -2.171875 8.035156 -2.445312 8.578125 -3 C 9.117188 -3.550781 9.390625 -4.367188 9.390625 -5.453125 C 9.390625 -6.535156 9.117188 -7.351562 8.578125 -7.90625 C 8.035156 -8.457031 7.40625 -8.734375 6.6875 -8.734375 C 5.9375 -8.734375 5.289062 -8.457031 4.75 -7.90625 C 4.21875 -7.351562 3.953125 -6.535156 3.953125 -5.453125 C 3.953125 -4.367188 4.21875 -3.550781 4.75 -3 C 5.289062 -2.445312 5.929688 -2.171875 6.671875 -2.171875 Z M 6.671875 -2.171875 "/></g></g></g><g fill="#320b2a" fill-opacity="1"><g transform="translate(244.196889, 175.84033)"><g><path d="M 1.4375 0 L 1.4375 -10.90625 L 3.9375 -10.90625 L 4.203125 -8.859375 C 4.597656 -9.566406 5.132812 -10.128906 5.8125 -10.546875 C 6.5 -10.960938 7.304688 -11.171875 8.234375 -11.171875 L 8.234375 -8.203125 L 7.4375 -8.203125 C 6.820312 -8.203125 6.269531 -8.109375 5.78125 -7.921875 C 5.300781 -7.734375 4.925781 -7.398438 4.65625 -6.921875 C 4.382812 -6.453125 4.25 -5.800781 4.25 -4.96875 L 4.25 0 Z M 1.4375 0 "/></g></g></g><g fill="#320b2a" fill-opacity="1"><g transform="translate(252.423337, 175.84033)"><g><path d="M 1.4375 0 L 1.4375 -10.90625 L 3.921875 -10.90625 L 4.140625 -9.0625 C 4.472656 -9.707031 4.957031 -10.21875 5.59375 -10.59375 C 6.238281 -10.976562 6.992188 -11.171875 7.859375 -11.171875 C 9.203125 -11.171875 10.25 -10.742188 11 -9.890625 C 11.75 -9.046875 12.125 -7.800781 12.125 -6.15625 L 12.125 0 L 9.3125 0 L 9.3125 -5.890625 C 9.3125 -6.828125 9.117188 -7.546875 8.734375 -8.046875 C 8.347656 -8.546875 7.753906 -8.796875 6.953125 -8.796875 C 6.160156 -8.796875 5.507812 -8.515625 5 -7.953125 C 4.5 -7.398438 4.25 -6.625 4.25 -5.625 L 4.25 0 Z M 1.4375 0 "/></g></g></g><g fill="#320b2a" fill-opacity="1"><g transform="translate(265.312954, 175.84033)"><g><path d="M 6.671875 0.265625 C 5.609375 0.265625 4.65625 0.0234375 3.8125 -0.453125 C 2.96875 -0.941406 2.300781 -1.613281 1.8125 -2.46875 C 1.320312 -3.332031 1.078125 -4.328125 1.078125 -5.453125 C 1.078125 -6.585938 1.328125 -7.582031 1.828125 -8.4375 C 2.328125 -9.289062 3 -9.957031 3.84375 -10.4375 C 4.6875 -10.925781 5.632812 -11.171875 6.6875 -11.171875 C 7.726562 -11.171875 8.671875 -10.925781 9.515625 -10.4375 C 10.359375 -9.957031 11.023438 -9.289062 11.515625 -8.4375 C 12.003906 -7.582031 12.25 -6.585938 12.25 -5.453125 C 12.25 -4.328125 12.003906 -3.332031 11.515625 -2.46875 C 11.023438 -1.613281 10.351562 -0.941406 9.5 -0.453125 C 8.65625 0.0234375 7.710938 0.265625 6.671875 0.265625 Z M 6.671875 -2.171875 C 7.398438 -2.171875 8.035156 -2.445312 8.578125 -3 C 9.117188 -3.550781 9.390625 -4.367188 9.390625 -5.453125 C 9.390625 -6.535156 9.117188 -7.351562 8.578125 -7.90625 C 8.035156 -8.457031 7.40625 -8.734375 6.6875 -8.734375 C 5.9375 -8.734375 5.289062 -8.457031 4.75 -7.90625 C 4.21875 -7.351562 3.953125 -6.535156 3.953125 -5.453125 C 3.953125 -4.367188 4.21875 -3.550781 4.75 -3 C 5.289062 -2.445312 5.929688 -2.171875 6.671875 -2.171875 Z M 6.671875 -2.171875 "/></g></g></g><g fill="#320b2a" fill-opacity="1"><g transform="translate(148.096783, 191.249987)"><g><path d="M 0.65625 -0.390625 C 0.9375 -0.398438 1.132812 -0.460938 1.25 -0.578125 C 1.375 -0.703125 1.441406 -0.847656 1.453125 -1.015625 C 1.472656 -1.179688 1.484375 -1.46875 1.484375 -1.875 L 1.484375 -7.0625 C 1.484375 -7.394531 1.5 -7.679688 1.53125 -7.921875 L 0.65625 -7.875 L 0.65625 -8.40625 L 3.484375 -8.40625 C 4.992188 -8.414062 6.1875 -8.0625 7.0625 -7.34375 C 7.945312 -6.632812 8.390625 -5.582031 8.390625 -4.1875 C 8.390625 -3.4375 8.210938 -2.738281 7.859375 -2.09375 C 7.503906 -1.457031 6.984375 -0.945312 6.296875 -0.5625 C 5.609375 -0.1875 4.78125 0 3.8125 0 L 0.65625 0 Z M 3.78125 -0.453125 C 4.445312 -0.453125 5.039062 -0.613281 5.5625 -0.9375 C 6.082031 -1.269531 6.488281 -1.722656 6.78125 -2.296875 C 7.070312 -2.878906 7.21875 -3.523438 7.21875 -4.234375 C 7.21875 -5.398438 6.894531 -6.3125 6.25 -6.96875 C 5.613281 -7.632812 4.648438 -7.96875 3.359375 -7.96875 C 3.078125 -7.96875 2.875 -7.910156 2.75 -7.796875 C 2.632812 -7.679688 2.566406 -7.539062 2.546875 -7.375 C 2.535156 -7.21875 2.53125 -6.9375 2.53125 -6.53125 L 2.53125 -1.421875 C 2.53125 -1.003906 2.519531 -0.691406 2.5 -0.484375 C 2.78125 -0.460938 3.207031 -0.453125 3.78125 -0.453125 Z M 3.78125 -0.453125 "/></g></g></g><g fill="#320b2a" fill-opacity="1"><g transform="translate(156.772804, 191.249987)"><g><path d="M 3.4375 0.1875 C 2.882812 0.1875 2.382812 0.0546875 1.9375 -0.203125 C 1.488281 -0.460938 1.132812 -0.832031 0.875 -1.3125 C 0.625 -1.800781 0.5 -2.359375 0.5 -2.984375 C 0.5 -3.546875 0.625 -4.070312 0.875 -4.5625 C 1.132812 -5.050781 1.492188 -5.441406 1.953125 -5.734375 C 2.421875 -6.035156 2.945312 -6.1875 3.53125 -6.1875 C 3.988281 -6.1875 4.398438 -6.085938 4.765625 -5.890625 C 5.128906 -5.691406 5.421875 -5.394531 5.640625 -5 C 5.859375 -4.601562 5.96875 -4.117188 5.96875 -3.546875 L 1.734375 -3.46875 C 1.734375 -2.507812 1.894531 -1.757812 2.21875 -1.21875 C 2.539062 -0.6875 3.039062 -0.421875 3.71875 -0.421875 C 4.082031 -0.421875 4.457031 -0.515625 4.84375 -0.703125 C 5.238281 -0.898438 5.539062 -1.140625 5.75 -1.421875 L 6.03125 -1.171875 C 5.726562 -0.710938 5.332031 -0.367188 4.84375 -0.140625 C 4.363281 0.078125 3.894531 0.1875 3.4375 0.1875 Z M 4.84375 -3.96875 C 4.84375 -4.445312 4.734375 -4.859375 4.515625 -5.203125 C 4.296875 -5.546875 3.972656 -5.71875 3.546875 -5.71875 C 2.546875 -5.71875 1.957031 -5.132812 1.78125 -3.96875 Z M 4.84375 -3.96875 "/></g></g></g><g fill="#320b2a" fill-opacity="1"><g transform="translate(163.012812, 191.249987)"><g><path d="M 2.984375 0.1875 C 2.609375 0.1875 2.265625 0.132812 1.953125 0.03125 C 1.640625 -0.0625 1.375 -0.1875 1.15625 -0.34375 L 1.203125 0.078125 L 0.703125 0.078125 L 0.625 -1.984375 L 1 -1.984375 C 1.007812 -1.648438 1.097656 -1.351562 1.265625 -1.09375 C 1.429688 -0.84375 1.644531 -0.644531 1.90625 -0.5 C 2.175781 -0.351562 2.460938 -0.28125 2.765625 -0.28125 C 3.109375 -0.28125 3.414062 -0.359375 3.6875 -0.515625 C 3.957031 -0.679688 4.09375 -0.914062 4.09375 -1.21875 C 4.09375 -1.445312 4.023438 -1.632812 3.890625 -1.78125 C 3.765625 -1.9375 3.601562 -2.0625 3.40625 -2.15625 C 3.207031 -2.257812 2.929688 -2.378906 2.578125 -2.515625 C 2.148438 -2.679688 1.804688 -2.832031 1.546875 -2.96875 C 1.296875 -3.113281 1.078125 -3.304688 0.890625 -3.546875 C 0.710938 -3.785156 0.625 -4.085938 0.625 -4.453125 C 0.625 -4.710938 0.6875 -4.972656 0.8125 -5.234375 C 0.945312 -5.503906 1.164062 -5.726562 1.46875 -5.90625 C 1.769531 -6.09375 2.171875 -6.1875 2.671875 -6.1875 C 2.921875 -6.1875 3.175781 -6.144531 3.4375 -6.0625 C 3.695312 -5.988281 3.9375 -5.859375 4.15625 -5.671875 L 4.140625 -6.125 L 4.640625 -6.125 L 4.640625 -4.03125 L 4.265625 -4.03125 C 4.234375 -4.5 4.085938 -4.898438 3.828125 -5.234375 C 3.566406 -5.578125 3.203125 -5.75 2.734375 -5.75 C 2.378906 -5.75 2.09375 -5.65625 1.875 -5.46875 C 1.664062 -5.289062 1.5625 -5.082031 1.5625 -4.84375 C 1.5625 -4.601562 1.628906 -4.40625 1.765625 -4.25 C 1.910156 -4.09375 2.085938 -3.957031 2.296875 -3.84375 C 2.503906 -3.726562 2.78125 -3.601562 3.125 -3.46875 C 3.539062 -3.300781 3.878906 -3.144531 4.140625 -3 C 4.398438 -2.851562 4.617188 -2.660156 4.796875 -2.421875 C 4.972656 -2.191406 5.0625 -1.910156 5.0625 -1.578125 C 5.0625 -1.191406 4.960938 -0.863281 4.765625 -0.59375 C 4.566406 -0.332031 4.3125 -0.132812 4 0 C 3.6875 0.125 3.347656 0.1875 2.984375 0.1875 Z M 2.984375 0.1875 "/></g></g></g><g fill="#320b2a" fill-opacity="1"><g transform="translate(168.304827, 191.249987)"><g><path d="M 2.203125 0.1875 C 1.617188 0.1875 1.171875 0.0546875 0.859375 -0.203125 C 0.554688 -0.460938 0.40625 -0.804688 0.40625 -1.234375 C 0.40625 -1.703125 0.59375 -2.09375 0.96875 -2.40625 C 1.34375 -2.726562 1.8125 -2.96875 2.375 -3.125 C 2.9375 -3.28125 3.5 -3.351562 4.0625 -3.34375 L 4.0625 -4.09375 C 4.0625 -4.613281 3.984375 -5.019531 3.828125 -5.3125 C 3.679688 -5.601562 3.363281 -5.75 2.875 -5.75 C 2.625 -5.75 2.382812 -5.695312 2.15625 -5.59375 C 1.9375 -5.488281 1.773438 -5.332031 1.671875 -5.125 C 1.773438 -5.007812 1.828125 -4.859375 1.828125 -4.671875 C 1.828125 -4.546875 1.78125 -4.425781 1.6875 -4.3125 C 1.601562 -4.207031 1.476562 -4.15625 1.3125 -4.15625 C 1.144531 -4.15625 1.007812 -4.207031 0.90625 -4.3125 C 0.8125 -4.425781 0.765625 -4.570312 0.765625 -4.75 C 0.765625 -5.007812 0.863281 -5.25 1.0625 -5.46875 C 1.269531 -5.695312 1.554688 -5.875 1.921875 -6 C 2.285156 -6.125 2.691406 -6.1875 3.140625 -6.1875 C 3.816406 -6.1875 4.3125 -6.007812 4.625 -5.65625 C 4.945312 -5.300781 5.101562 -4.738281 5.09375 -3.96875 L 5.09375 -1.265625 C 5.09375 -1.015625 5.078125 -0.742188 5.046875 -0.453125 L 5.890625 -0.5 L 5.890625 0 L 4.171875 0 C 4.148438 -0.125 4.125 -0.351562 4.09375 -0.6875 C 3.507812 -0.101562 2.878906 0.1875 2.203125 0.1875 Z M 2.484375 -0.484375 C 2.785156 -0.484375 3.0625 -0.539062 3.3125 -0.65625 C 3.5625 -0.78125 3.8125 -0.960938 4.0625 -1.203125 C 4.0625 -1.316406 4.0625 -1.519531 4.0625 -1.8125 L 4.0625 -2.9375 C 3.40625 -2.914062 2.820312 -2.78125 2.3125 -2.53125 C 1.800781 -2.289062 1.546875 -1.921875 1.546875 -1.421875 C 1.546875 -1.117188 1.632812 -0.882812 1.8125 -0.71875 C 1.988281 -0.5625 2.210938 -0.484375 2.484375 -0.484375 Z M 2.484375 -0.484375 "/></g></g></g><g fill="#320b2a" fill-opacity="1"><g transform="translate(174.232835, 191.249987)"><g><path d="M 0.53125 -0.359375 C 0.757812 -0.359375 0.921875 -0.414062 1.015625 -0.53125 C 1.117188 -0.644531 1.179688 -0.789062 1.203125 -0.96875 C 1.222656 -1.15625 1.234375 -1.441406 1.234375 -1.828125 L 1.234375 -4.5625 C 1.234375 -4.894531 1.25 -5.15625 1.28125 -5.34375 L 0.4375 -5.296875 L 0.4375 -5.796875 L 0.796875 -5.796875 C 1.109375 -5.796875 1.332031 -5.820312 1.46875 -5.875 C 1.601562 -5.925781 1.726562 -6.007812 1.84375 -6.125 L 2.203125 -6.125 C 2.234375 -5.8125 2.25 -5.414062 2.25 -4.9375 C 2.457031 -5.257812 2.742188 -5.546875 3.109375 -5.796875 C 3.484375 -6.054688 3.867188 -6.1875 4.265625 -6.1875 C 4.503906 -6.1875 4.703125 -6.125 4.859375 -6 C 5.023438 -5.875 5.109375 -5.6875 5.109375 -5.4375 C 5.109375 -5.3125 5.054688 -5.179688 4.953125 -5.046875 C 4.859375 -4.921875 4.71875 -4.859375 4.53125 -4.859375 C 4.351562 -4.859375 4.207031 -4.921875 4.09375 -5.046875 C 3.988281 -5.179688 3.945312 -5.34375 3.96875 -5.53125 C 3.664062 -5.539062 3.359375 -5.425781 3.046875 -5.1875 C 2.742188 -4.945312 2.484375 -4.625 2.265625 -4.21875 L 2.28125 -1.265625 C 2.28125 -0.910156 2.265625 -0.640625 2.234375 -0.453125 L 2.984375 -0.484375 L 2.984375 0 L 0.53125 0 Z M 0.53125 -0.359375 "/></g></g></g><g fill="#320b2a" fill-opacity="1"><g transform="translate(179.164841, 191.249987)"><g><path d="M 0.53125 -0.359375 C 0.757812 -0.359375 0.921875 -0.414062 1.015625 -0.53125 C 1.117188 -0.644531 1.179688 -0.789062 1.203125 -0.96875 C 1.222656 -1.15625 1.234375 -1.441406 1.234375 -1.828125 L 1.234375 -4.5625 C 1.234375 -4.894531 1.25 -5.15625 1.28125 -5.34375 L 0.4375 -5.296875 L 0.4375 -5.796875 L 0.796875 -5.796875 C 1.109375 -5.796875 1.332031 -5.820312 1.46875 -5.875 C 1.601562 -5.925781 1.726562 -6.007812 1.84375 -6.125 L 2.203125 -6.125 C 2.234375 -5.8125 2.25 -5.414062 2.25 -4.9375 C 2.457031 -5.257812 2.742188 -5.546875 3.109375 -5.796875 C 3.484375 -6.054688 3.867188 -6.1875 4.265625 -6.1875 C 4.503906 -6.1875 4.703125 -6.125 4.859375 -6 C 5.023438 -5.875 5.109375 -5.6875 5.109375 -5.4375 C 5.109375 -5.3125 5.054688 -5.179688 4.953125 -5.046875 C 4.859375 -4.921875 4.71875 -4.859375 4.53125 -4.859375 C 4.351562 -4.859375 4.207031 -4.921875 4.09375 -5.046875 C 3.988281 -5.179688 3.945312 -5.34375 3.96875 -5.53125 C 3.664062 -5.539062 3.359375 -5.425781 3.046875 -5.1875 C 2.742188 -4.945312 2.484375 -4.625 2.265625 -4.21875 L 2.28125 -1.265625 C 2.28125 -0.910156 2.265625 -0.640625 2.234375 -0.453125 L 2.984375 -0.484375 L 2.984375 0 L 0.53125 0 Z M 0.53125 -0.359375 "/></g></g></g><g fill="#320b2a" fill-opacity="1"><g transform="translate(184.096846, 191.249987)"><g><path d="M 3.5 0.1875 C 2.945312 0.1875 2.441406 0.0546875 1.984375 -0.203125 C 1.523438 -0.460938 1.160156 -0.820312 0.890625 -1.28125 C 0.617188 -1.75 0.484375 -2.273438 0.484375 -2.859375 C 0.484375 -3.484375 0.613281 -4.046875 0.875 -4.546875 C 1.144531 -5.054688 1.507812 -5.457031 1.96875 -5.75 C 2.425781 -6.039062 2.9375 -6.1875 3.5 -6.1875 C 4.050781 -6.1875 4.554688 -6.050781 5.015625 -5.78125 C 5.484375 -5.519531 5.851562 -5.15625 6.125 -4.6875 C 6.394531 -4.226562 6.53125 -3.710938 6.53125 -3.140625 C 6.53125 -2.535156 6.394531 -1.976562 6.125 -1.46875 C 5.851562 -0.957031 5.488281 -0.550781 5.03125 -0.25 C 4.570312 0.0390625 4.0625 0.1875 3.5 0.1875 Z M 3.59375 -0.28125 C 4.175781 -0.28125 4.601562 -0.519531 4.875 -1 C 5.15625 -1.488281 5.296875 -2.085938 5.296875 -2.796875 C 5.296875 -3.609375 5.144531 -4.300781 4.84375 -4.875 C 4.550781 -5.445312 4.101562 -5.734375 3.5 -5.734375 C 2.90625 -5.734375 2.457031 -5.488281 2.15625 -5 C 1.863281 -4.507812 1.71875 -3.910156 1.71875 -3.203125 C 1.71875 -2.691406 1.785156 -2.210938 1.921875 -1.765625 C 2.066406 -1.328125 2.28125 -0.96875 2.5625 -0.6875 C 2.84375 -0.414062 3.1875 -0.28125 3.59375 -0.28125 Z M 3.59375 -0.28125 "/></g></g></g><g fill="#320b2a" fill-opacity="1"><g transform="translate(190.852857, 191.249987)"><g><path d="M 0.40625 -0.359375 C 0.632812 -0.359375 0.800781 -0.414062 0.90625 -0.53125 C 1.007812 -0.644531 1.066406 -0.789062 1.078125 -0.96875 C 1.097656 -1.15625 1.109375 -1.441406 1.109375 -1.828125 L 1.109375 -7.5 C 1.109375 -7.800781 1.125 -8.0625 1.15625 -8.28125 L 0.296875 -8.234375 L 0.296875 -8.734375 C 0.773438 -8.734375 1.113281 -8.757812 1.3125 -8.8125 C 1.519531 -8.875 1.679688 -8.957031 1.796875 -9.0625 L 2.140625 -9.0625 L 2.15625 -1.265625 C 2.15625 -0.953125 2.132812 -0.679688 2.09375 -0.453125 L 2.859375 -0.484375 L 2.859375 0 L 0.40625 0 Z M 0.40625 -0.359375 "/></g></g></g><g fill="#320b2a" fill-opacity="1"><g transform="translate(193.852859, 191.249987)"><g><path d="M 0.40625 -0.359375 C 0.632812 -0.359375 0.800781 -0.414062 0.90625 -0.53125 C 1.007812 -0.644531 1.066406 -0.789062 1.078125 -0.96875 C 1.097656 -1.15625 1.109375 -1.441406 1.109375 -1.828125 L 1.109375 -7.5 C 1.109375 -7.800781 1.125 -8.0625 1.15625 -8.28125 L 0.296875 -8.234375 L 0.296875 -8.734375 C 0.773438 -8.734375 1.113281 -8.757812 1.3125 -8.8125 C 1.519531 -8.875 1.679688 -8.957031 1.796875 -9.0625 L 2.140625 -9.0625 L 2.15625 -1.265625 C 2.15625 -0.953125 2.132812 -0.679688 2.09375 -0.453125 L 2.859375 -0.484375 L 2.859375 0 L 0.40625 0 Z M 0.40625 -0.359375 "/></g></g></g><g fill="#320b2a" fill-opacity="1"><g transform="translate(196.852862, 191.249987)"><g><path d="M 3.5 0.1875 C 2.945312 0.1875 2.441406 0.0546875 1.984375 -0.203125 C 1.523438 -0.460938 1.160156 -0.820312 0.890625 -1.28125 C 0.617188 -1.75 0.484375 -2.273438 0.484375 -2.859375 C 0.484375 -3.484375 0.613281 -4.046875 0.875 -4.546875 C 1.144531 -5.054688 1.507812 -5.457031 1.96875 -5.75 C 2.425781 -6.039062 2.9375 -6.1875 3.5 -6.1875 C 4.050781 -6.1875 4.554688 -6.050781 5.015625 -5.78125 C 5.484375 -5.519531 5.851562 -5.15625 6.125 -4.6875 C 6.394531 -4.226562 6.53125 -3.710938 6.53125 -3.140625 C 6.53125 -2.535156 6.394531 -1.976562 6.125 -1.46875 C 5.851562 -0.957031 5.488281 -0.550781 5.03125 -0.25 C 4.570312 0.0390625 4.0625 0.1875 3.5 0.1875 Z M 3.59375 -0.28125 C 4.175781 -0.28125 4.601562 -0.519531 4.875 -1 C 5.15625 -1.488281 5.296875 -2.085938 5.296875 -2.796875 C 5.296875 -3.609375 5.144531 -4.300781 4.84375 -4.875 C 4.550781 -5.445312 4.101562 -5.734375 3.5 -5.734375 C 2.90625 -5.734375 2.457031 -5.488281 2.15625 -5 C 1.863281 -4.507812 1.71875 -3.910156 1.71875 -3.203125 C 1.71875 -2.691406 1.785156 -2.210938 1.921875 -1.765625 C 2.066406 -1.328125 2.28125 -0.96875 2.5625 -0.6875 C 2.84375 -0.414062 3.1875 -0.28125 3.59375 -0.28125 Z M 3.59375 -0.28125 "/></g></g></g><g fill="#320b2a" fill-opacity="1"><g transform="translate(203.608876, 191.249987)"><g/></g></g><g fill="#320b2a" fill-opacity="1"><g transform="translate(206.500883, 191.249987)"><g><path d="M 1.265625 -6.265625 L 1.109375 -6.734375 C 0.910156 -7.328125 0.789062 -7.710938 0.75 -7.890625 L 0.078125 -7.875 L 0.078125 -8.40625 L 3 -8.40625 L 3 -8 C 2.675781 -7.988281 2.441406 -7.9375 2.296875 -7.84375 C 2.160156 -7.75 2.09375 -7.597656 2.09375 -7.390625 C 2.09375 -7.203125 2.132812 -6.972656 2.21875 -6.703125 C 2.363281 -6.160156 2.554688 -5.554688 2.796875 -4.890625 C 2.835938 -4.773438 2.882812 -4.632812 2.9375 -4.46875 C 3 -4.300781 3.0625 -4.113281 3.125 -3.90625 C 3.175781 -3.726562 3.238281 -3.539062 3.3125 -3.34375 C 3.382812 -3.144531 3.4375 -3.003906 3.46875 -2.921875 C 3.625 -2.484375 3.742188 -2.140625 3.828125 -1.890625 L 3.859375 -1.890625 C 4.015625 -2.429688 4.175781 -2.957031 4.34375 -3.46875 C 4.632812 -4.394531 4.953125 -5.375 5.296875 -6.40625 C 5.648438 -7.488281 5.863281 -8.160156 5.9375 -8.421875 L 6.328125 -8.421875 C 6.421875 -8.097656 6.582031 -7.582031 6.8125 -6.875 C 7.039062 -6.175781 7.207031 -5.671875 7.3125 -5.359375 C 7.5625 -4.671875 7.726562 -4.1875 7.8125 -3.90625 C 7.875 -3.6875 7.976562 -3.359375 8.125 -2.921875 C 8.28125 -2.460938 8.410156 -2.066406 8.515625 -1.734375 L 8.546875 -1.734375 C 8.734375 -2.359375 8.894531 -2.875 9.03125 -3.28125 C 9.4375 -4.445312 9.769531 -5.445312 10.03125 -6.28125 C 10.125 -6.582031 10.203125 -6.832031 10.265625 -7.03125 C 10.421875 -7.4375 10.546875 -7.726562 10.640625 -7.90625 L 9.6875 -7.875 L 9.6875 -8.40625 L 12.125 -8.40625 L 12.125 -8 C 11.832031 -7.96875 11.613281 -7.90625 11.46875 -7.8125 C 11.320312 -7.726562 11.1875 -7.570312 11.0625 -7.34375 C 10.945312 -7.125 10.800781 -6.753906 10.625 -6.234375 L 10.015625 -4.40625 C 9.378906 -2.457031 8.863281 -0.945312 8.46875 0.125 L 8.109375 0.125 L 5.875 -6.296875 L 3.75 0.125 L 3.40625 0.125 Z M 1.265625 -6.265625 "/></g></g></g><g fill="#320b2a" fill-opacity="1"><g transform="translate(218.176906, 191.249987)"><g><path d="M 3.4375 0.1875 C 2.882812 0.1875 2.382812 0.0546875 1.9375 -0.203125 C 1.488281 -0.460938 1.132812 -0.832031 0.875 -1.3125 C 0.625 -1.800781 0.5 -2.359375 0.5 -2.984375 C 0.5 -3.546875 0.625 -4.070312 0.875 -4.5625 C 1.132812 -5.050781 1.492188 -5.441406 1.953125 -5.734375 C 2.421875 -6.035156 2.945312 -6.1875 3.53125 -6.1875 C 3.988281 -6.1875 4.398438 -6.085938 4.765625 -5.890625 C 5.128906 -5.691406 5.421875 -5.394531 5.640625 -5 C 5.859375 -4.601562 5.96875 -4.117188 5.96875 -3.546875 L 1.734375 -3.46875 C 1.734375 -2.507812 1.894531 -1.757812 2.21875 -1.21875 C 2.539062 -0.6875 3.039062 -0.421875 3.71875 -0.421875 C 4.082031 -0.421875 4.457031 -0.515625 4.84375 -0.703125 C 5.238281 -0.898438 5.539062 -1.140625 5.75 -1.421875 L 6.03125 -1.171875 C 5.726562 -0.710938 5.332031 -0.367188 4.84375 -0.140625 C 4.363281 0.078125 3.894531 0.1875 3.4375 0.1875 Z M 4.84375 -3.96875 C 4.84375 -4.445312 4.734375 -4.859375 4.515625 -5.203125 C 4.296875 -5.546875 3.972656 -5.71875 3.546875 -5.71875 C 2.546875 -5.71875 1.957031 -5.132812 1.78125 -3.96875 Z M 4.84375 -3.96875 "/></g></g></g><g fill="#320b2a" fill-opacity="1"><g transform="translate(224.416917, 191.249987)"><g><path d="M 3.359375 0.1875 C 3.035156 0.1875 2.71875 0.128906 2.40625 0.015625 C 2.09375 -0.0859375 1.820312 -0.273438 1.59375 -0.546875 L 1.3125 0 L 0.890625 0 L 0.90625 -7.5 C 0.90625 -7.800781 0.921875 -8.0625 0.953125 -8.28125 L 0.09375 -8.234375 L 0.09375 -8.734375 C 0.570312 -8.734375 0.910156 -8.757812 1.109375 -8.8125 C 1.316406 -8.875 1.476562 -8.957031 1.59375 -9.0625 L 1.9375 -9.0625 L 1.9375 -5.484375 C 2.164062 -5.703125 2.429688 -5.875 2.734375 -6 C 3.046875 -6.125 3.382812 -6.1875 3.75 -6.1875 C 4.269531 -6.1875 4.734375 -6.0625 5.140625 -5.8125 C 5.554688 -5.570312 5.882812 -5.21875 6.125 -4.75 C 6.363281 -4.289062 6.484375 -3.753906 6.484375 -3.140625 C 6.484375 -2.472656 6.335938 -1.890625 6.046875 -1.390625 C 5.753906 -0.890625 5.367188 -0.5 4.890625 -0.21875 C 4.410156 0.0507812 3.898438 0.1875 3.359375 0.1875 Z M 3.359375 -0.296875 C 3.929688 -0.296875 4.390625 -0.53125 4.734375 -1 C 5.078125 -1.46875 5.25 -2.082031 5.25 -2.84375 C 5.25 -3.6875 5.09375 -4.359375 4.78125 -4.859375 C 4.46875 -5.359375 4.003906 -5.609375 3.390625 -5.609375 C 3.128906 -5.609375 2.867188 -5.546875 2.609375 -5.421875 C 2.347656 -5.296875 2.125 -5.128906 1.9375 -4.921875 L 1.9375 -1.890625 C 1.9375 -0.828125 2.410156 -0.296875 3.359375 -0.296875 Z M 3.359375 -0.296875 "/></g></g></g><g fill="#320b2a" fill-opacity="1"><g transform="translate(231.147559, 191.249987)"><g/></g></g><g fill="#320b2a" fill-opacity="1"><g transform="translate(234.039564, 191.249987)"><g><path d="M 3.25 0.1875 C 2.757812 0.1875 2.296875 0.109375 1.859375 -0.046875 C 1.429688 -0.210938 1.085938 -0.472656 0.828125 -0.828125 C 0.566406 -1.179688 0.4375 -1.625 0.4375 -2.15625 C 0.4375 -2.664062 0.597656 -3.117188 0.921875 -3.515625 C 1.253906 -3.921875 1.71875 -4.253906 2.3125 -4.515625 C 2 -4.921875 1.769531 -5.289062 1.625 -5.625 C 1.476562 -5.96875 1.40625 -6.328125 1.40625 -6.703125 C 1.414062 -7.273438 1.625 -7.734375 2.03125 -8.078125 C 2.445312 -8.421875 2.976562 -8.59375 3.625 -8.59375 C 4.019531 -8.59375 4.367188 -8.515625 4.671875 -8.359375 C 4.972656 -8.210938 5.207031 -8.007812 5.375 -7.75 C 5.539062 -7.5 5.625 -7.21875 5.625 -6.90625 C 5.625 -6.445312 5.46875 -6.019531 5.15625 -5.625 C 4.851562 -5.238281 4.351562 -4.875 3.65625 -4.53125 C 3.851562 -4.320312 4.175781 -3.984375 4.625 -3.515625 C 4.96875 -3.148438 5.382812 -2.738281 5.875 -2.28125 C 5.957031 -2.550781 6 -2.804688 6 -3.046875 C 6 -3.367188 5.925781 -3.644531 5.78125 -3.875 C 5.644531 -4.101562 5.414062 -4.226562 5.09375 -4.25 L 5.09375 -4.640625 L 7.1875 -4.640625 L 7.1875 -4.15625 L 6.1875 -4.203125 C 6.4375 -3.984375 6.5625 -3.625 6.5625 -3.125 C 6.5625 -2.71875 6.484375 -2.304688 6.328125 -1.890625 L 6.5625 -1.671875 C 6.675781 -1.566406 6.796875 -1.457031 6.921875 -1.34375 C 7.265625 -1.03125 7.566406 -0.789062 7.828125 -0.625 C 8.097656 -0.46875 8.300781 -0.390625 8.4375 -0.390625 L 8.4375 0 L 7.3125 0 C 7.226562 0 7.050781 -0.0820312 6.78125 -0.25 C 6.519531 -0.414062 6.203125 -0.664062 5.828125 -1 C 5.210938 -0.207031 4.351562 0.1875 3.25 0.1875 Z M 3.390625 -4.8125 C 3.828125 -5.101562 4.15625 -5.425781 4.375 -5.78125 C 4.601562 -6.144531 4.71875 -6.507812 4.71875 -6.875 C 4.71875 -7.269531 4.613281 -7.585938 4.40625 -7.828125 C 4.207031 -8.078125 3.925781 -8.203125 3.5625 -8.203125 C 3.226562 -8.203125 2.953125 -8.078125 2.734375 -7.828125 C 2.515625 -7.585938 2.40625 -7.242188 2.40625 -6.796875 C 2.40625 -6.203125 2.734375 -5.539062 3.390625 -4.8125 Z M 3.515625 -0.40625 C 4.328125 -0.40625 4.972656 -0.710938 5.453125 -1.328125 C 5.285156 -1.472656 5.164062 -1.582031 5.09375 -1.65625 L 4.921875 -1.828125 C 4.796875 -1.941406 4.457031 -2.269531 3.90625 -2.8125 C 3.363281 -3.351562 2.9375 -3.800781 2.625 -4.15625 C 2.28125 -3.957031 2.023438 -3.679688 1.859375 -3.328125 C 1.703125 -2.984375 1.625 -2.65625 1.625 -2.34375 C 1.625 -1.695312 1.804688 -1.210938 2.171875 -0.890625 C 2.546875 -0.566406 2.992188 -0.40625 3.515625 -0.40625 Z M 3.515625 -0.40625 "/></g></g></g><g fill="#320b2a" fill-opacity="1"><g transform="translate(242.115583, 191.249987)"><g/></g></g><g fill="#320b2a" fill-opacity="1"><g transform="translate(245.007589, 191.249987)"><g><path d="M 4.515625 -1.375 C 3.898438 -2.726562 3.425781 -3.796875 3.09375 -4.578125 C 2.757812 -5.359375 2.429688 -6.179688 2.109375 -7.046875 L 2.09375 -6.515625 C 2.019531 -4.171875 1.976562 -2.5 1.96875 -1.5 C 1.96875 -1.375 1.960938 -1.285156 1.953125 -1.234375 C 1.953125 -0.960938 1.941406 -0.710938 1.921875 -0.484375 L 2.8125 -0.53125 L 2.8125 0 L 0.53125 0 L 0.53125 -0.390625 C 0.863281 -0.398438 1.078125 -0.492188 1.171875 -0.671875 C 1.273438 -0.859375 1.335938 -1.132812 1.359375 -1.5 L 1.625 -7.921875 L 0.75 -7.890625 L 0.75 -8.40625 L 2.59375 -8.40625 L 4.21875 -4.625 C 4.8125 -3.238281 5.269531 -2.1875 5.59375 -1.46875 L 5.609375 -1.46875 C 5.710938 -1.707031 5.921875 -2.222656 6.234375 -3.015625 C 6.535156 -3.773438 6.878906 -4.617188 7.265625 -5.546875 C 7.722656 -6.617188 8.117188 -7.570312 8.453125 -8.40625 L 10.21875 -8.40625 L 10.21875 -8 C 9.9375 -8.007812 9.726562 -7.929688 9.59375 -7.765625 C 9.457031 -7.609375 9.390625 -7.332031 9.390625 -6.9375 L 9.390625 -6.703125 L 9.703125 -1.234375 C 9.722656 -1.046875 9.734375 -0.796875 9.734375 -0.484375 L 10.609375 -0.53125 L 10.609375 0 L 7.921875 0 L 7.921875 -0.390625 C 8.234375 -0.398438 8.441406 -0.488281 8.546875 -0.65625 C 8.660156 -0.832031 8.71875 -1.101562 8.71875 -1.46875 C 8.71875 -1.625 8.71875 -1.742188 8.71875 -1.828125 L 8.40625 -6.9375 C 8.382812 -6.894531 8.359375 -6.84375 8.328125 -6.78125 C 8.304688 -6.71875 8.28125 -6.640625 8.25 -6.546875 L 5.546875 0.125 L 5.1875 0.125 Z M 4.515625 -1.375 "/></g></g></g><g fill="#320b2a" fill-opacity="1"><g transform="translate(255.759613, 191.249987)"><g><path d="M 3.5 0.1875 C 2.945312 0.1875 2.441406 0.0546875 1.984375 -0.203125 C 1.523438 -0.460938 1.160156 -0.820312 0.890625 -1.28125 C 0.617188 -1.75 0.484375 -2.273438 0.484375 -2.859375 C 0.484375 -3.484375 0.613281 -4.046875 0.875 -4.546875 C 1.144531 -5.054688 1.507812 -5.457031 1.96875 -5.75 C 2.425781 -6.039062 2.9375 -6.1875 3.5 -6.1875 C 4.050781 -6.1875 4.554688 -6.050781 5.015625 -5.78125 C 5.484375 -5.519531 5.851562 -5.15625 6.125 -4.6875 C 6.394531 -4.226562 6.53125 -3.710938 6.53125 -3.140625 C 6.53125 -2.535156 6.394531 -1.976562 6.125 -1.46875 C 5.851562 -0.957031 5.488281 -0.550781 5.03125 -0.25 C 4.570312 0.0390625 4.0625 0.1875 3.5 0.1875 Z M 3.59375 -0.28125 C 4.175781 -0.28125 4.601562 -0.519531 4.875 -1 C 5.15625 -1.488281 5.296875 -2.085938 5.296875 -2.796875 C 5.296875 -3.609375 5.144531 -4.300781 4.84375 -4.875 C 4.550781 -5.445312 4.101562 -5.734375 3.5 -5.734375 C 2.90625 -5.734375 2.457031 -5.488281 2.15625 -5 C 1.863281 -4.507812 1.71875 -3.910156 1.71875 -3.203125 C 1.71875 -2.691406 1.785156 -2.210938 1.921875 -1.765625 C 2.066406 -1.328125 2.28125 -0.96875 2.5625 -0.6875 C 2.84375 -0.414062 3.1875 -0.28125 3.59375 -0.28125 Z M 3.59375 -0.28125 "/></g></g></g><g fill="#320b2a" fill-opacity="1"><g transform="translate(262.515623, 191.249987)"><g><path d="M 3.359375 0.1875 C 3.035156 0.1875 2.71875 0.128906 2.40625 0.015625 C 2.09375 -0.0859375 1.820312 -0.273438 1.59375 -0.546875 L 1.3125 0 L 0.890625 0 L 0.90625 -7.5 C 0.90625 -7.800781 0.921875 -8.0625 0.953125 -8.28125 L 0.09375 -8.234375 L 0.09375 -8.734375 C 0.570312 -8.734375 0.910156 -8.757812 1.109375 -8.8125 C 1.316406 -8.875 1.476562 -8.957031 1.59375 -9.0625 L 1.9375 -9.0625 L 1.9375 -5.484375 C 2.164062 -5.703125 2.429688 -5.875 2.734375 -6 C 3.046875 -6.125 3.382812 -6.1875 3.75 -6.1875 C 4.269531 -6.1875 4.734375 -6.0625 5.140625 -5.8125 C 5.554688 -5.570312 5.882812 -5.21875 6.125 -4.75 C 6.363281 -4.289062 6.484375 -3.753906 6.484375 -3.140625 C 6.484375 -2.472656 6.335938 -1.890625 6.046875 -1.390625 C 5.753906 -0.890625 5.367188 -0.5 4.890625 -0.21875 C 4.410156 0.0507812 3.898438 0.1875 3.359375 0.1875 Z M 3.359375 -0.296875 C 3.929688 -0.296875 4.390625 -0.53125 4.734375 -1 C 5.078125 -1.46875 5.25 -2.082031 5.25 -2.84375 C 5.25 -3.6875 5.09375 -4.359375 4.78125 -4.859375 C 4.46875 -5.359375 4.003906 -5.609375 3.390625 -5.609375 C 3.128906 -5.609375 2.867188 -5.546875 2.609375 -5.421875 C 2.347656 -5.296875 2.125 -5.128906 1.9375 -4.921875 L 1.9375 -1.890625 C 1.9375 -0.828125 2.410156 -0.296875 3.359375 -0.296875 Z M 3.359375 -0.296875 "/></g></g></g><g fill="#320b2a" fill-opacity="1"><g transform="translate(269.235631, 191.249987)"><g><path d="M 1.71875 -7.3125 C 1.550781 -7.3125 1.398438 -7.378906 1.265625 -7.515625 C 1.140625 -7.660156 1.078125 -7.828125 1.078125 -8.015625 C 1.078125 -8.203125 1.140625 -8.367188 1.265625 -8.515625 C 1.398438 -8.660156 1.554688 -8.734375 1.734375 -8.734375 C 1.910156 -8.734375 2.0625 -8.660156 2.1875 -8.515625 C 2.3125 -8.378906 2.375 -8.210938 2.375 -8.015625 C 2.375 -7.828125 2.304688 -7.660156 2.171875 -7.515625 C 2.046875 -7.378906 1.894531 -7.3125 1.71875 -7.3125 Z M 0.53125 -0.359375 C 0.757812 -0.359375 0.921875 -0.414062 1.015625 -0.53125 C 1.117188 -0.644531 1.179688 -0.789062 1.203125 -0.96875 C 1.222656 -1.15625 1.234375 -1.441406 1.234375 -1.828125 L 1.234375 -4.5625 C 1.234375 -4.789062 1.25 -5.050781 1.28125 -5.34375 L 0.4375 -5.296875 L 0.4375 -5.796875 C 0.90625 -5.796875 1.238281 -5.820312 1.4375 -5.875 C 1.644531 -5.9375 1.804688 -6.019531 1.921875 -6.125 L 2.265625 -6.125 L 2.265625 -1.265625 C 2.265625 -0.910156 2.25 -0.640625 2.21875 -0.453125 L 2.96875 -0.484375 L 2.96875 0 L 0.53125 0 Z M 0.53125 -0.359375 "/></g></g></g><g fill="#320b2a" fill-opacity="1"><g transform="translate(272.343631, 191.249987)"><g><path d="M 0.40625 -0.359375 C 0.632812 -0.359375 0.800781 -0.414062 0.90625 -0.53125 C 1.007812 -0.644531 1.066406 -0.789062 1.078125 -0.96875 C 1.097656 -1.15625 1.109375 -1.441406 1.109375 -1.828125 L 1.109375 -7.5 C 1.109375 -7.800781 1.125 -8.0625 1.15625 -8.28125 L 0.296875 -8.234375 L 0.296875 -8.734375 C 0.773438 -8.734375 1.113281 -8.757812 1.3125 -8.8125 C 1.519531 -8.875 1.679688 -8.957031 1.796875 -9.0625 L 2.140625 -9.0625 L 2.15625 -1.265625 C 2.15625 -0.953125 2.132812 -0.679688 2.09375 -0.453125 L 2.859375 -0.484375 L 2.859375 0 L 0.40625 0 Z M 0.40625 -0.359375 "/></g></g></g><g fill="#320b2a" fill-opacity="1"><g transform="translate(275.343634, 191.249987)"><g><path d="M 3.4375 0.1875 C 2.882812 0.1875 2.382812 0.0546875 1.9375 -0.203125 C 1.488281 -0.460938 1.132812 -0.832031 0.875 -1.3125 C 0.625 -1.800781 0.5 -2.359375 0.5 -2.984375 C 0.5 -3.546875 0.625 -4.070312 0.875 -4.5625 C 1.132812 -5.050781 1.492188 -5.441406 1.953125 -5.734375 C 2.421875 -6.035156 2.945312 -6.1875 3.53125 -6.1875 C 3.988281 -6.1875 4.398438 -6.085938 4.765625 -5.890625 C 5.128906 -5.691406 5.421875 -5.394531 5.640625 -5 C 5.859375 -4.601562 5.96875 -4.117188 5.96875 -3.546875 L 1.734375 -3.46875 C 1.734375 -2.507812 1.894531 -1.757812 2.21875 -1.21875 C 2.539062 -0.6875 3.039062 -0.421875 3.71875 -0.421875 C 4.082031 -0.421875 4.457031 -0.515625 4.84375 -0.703125 C 5.238281 -0.898438 5.539062 -1.140625 5.75 -1.421875 L 6.03125 -1.171875 C 5.726562 -0.710938 5.332031 -0.367188 4.84375 -0.140625 C 4.363281 0.078125 3.894531 0.1875 3.4375 0.1875 Z M 4.84375 -3.96875 C 4.84375 -4.445312 4.734375 -4.859375 4.515625 -5.203125 C 4.296875 -5.546875 3.972656 -5.71875 3.546875 -5.71875 C 2.546875 -5.71875 1.957031 -5.132812 1.78125 -3.96875 Z M 4.84375 -3.96875 "/></g></g></g></svg>