<svg xmlns="http://www.w3.org/2000/svg" xmlns:xlink="http://www.w3.org/1999/xlink" width="500" zoomAndPan="magnify" viewBox="0 0 375 374.999991" height="500" preserveAspectRatio="xMidYMid meet" version="1.2"><defs><clipPath id="b97bb2a0ab"><path d="M 74.144531 129.265625 L 138.644531 129.265625 L 138.644531 208.765625 L 74.144531 208.765625 Z M 74.144531 129.265625 "/></clipPath></defs><g id="a3027dbbfd"><rect x="0" width="375" y="0" height="374.999991" style="fill:#ffffff;fill-opacity:1;stroke:none;"/><rect x="0" width="375" y="0" height="374.999991" style="fill:#ffffff;fill-opacity:1;stroke:none;"/><g clip-rule="nonzero" clip-path="url(#b97bb2a0ab)"><path style=" stroke:none;fill-rule:nonzero;fill:#2f6047;fill-opacity:1;" d="M 138.648438 176.265625 C 138.648438 194.082031 124.210938 208.519531 106.394531 208.519531 C 100 208.519531 94.039062 206.648438 89.019531 203.433594 L 89.019531 193.976562 C 93.496094 198.363281 99.628906 201.078125 106.394531 201.078125 C 120.09375 201.078125 131.214844 189.96875 131.214844 176.265625 C 131.214844 162.558594 120.097656 151.449219 106.394531 151.449219 C 99.625 151.449219 93.496094 154.160156 89.019531 158.550781 C 84.4375 163.058594 81.578125 169.328125 81.578125 176.265625 L 81.578125 196.867188 C 76.9375 191.277344 74.144531 184.097656 74.144531 176.265625 L 74.144531 135.042969 L 81.578125 129.28125 L 81.578125 155.660156 C 83.707031 153.109375 86.21875 150.898438 89.019531 149.101562 C 94.039062 145.886719 100 144.007812 106.394531 144.007812 C 124.210938 144.007812 138.648438 158.453125 138.648438 176.265625 Z M 138.648438 176.265625 "/></g><path style=" stroke:none;fill-rule:nonzero;fill:#320b2a;fill-opacity:1;" d="M 122.308594 176.265625 C 122.308594 185.050781 115.179688 192.171875 106.394531 192.171875 C 97.609375 192.171875 90.484375 185.050781 90.484375 176.265625 C 90.484375 167.480469 97.609375 160.355469 106.394531 160.355469 C 115.179688 160.355469 122.308594 167.480469 122.308594 176.265625 Z M 122.308594 176.265625 "/><g style="fill:#ffffff;fill-opacity:1;"><g transform="translate(148.096783, 175.84033)"><path style="stroke:none" d="M 1.5 0 L 1.5 -15.40625 L 7.671875 -15.40625 C 9.273438 -15.40625 10.5 -15.03125 11.34375 -14.28125 C 12.1875 -13.539062 12.609375 -12.59375 12.609375 -11.4375 C 12.609375 -10.46875 12.347656 -9.691406 11.828125 -9.109375 C 11.304688 -8.535156 10.671875 -8.144531 9.921875 -7.9375 C 10.796875 -7.757812 11.519531 -7.320312 12.09375 -6.625 C 12.664062 -5.9375 12.953125 -5.128906 12.953125 -4.203125 C 12.953125 -2.984375 12.507812 -1.976562 11.625 -1.1875 C 10.75 -0.394531 9.503906 0 7.890625 0 Z M 4.3125 -8.9375 L 7.265625 -8.9375 C 8.054688 -8.9375 8.660156 -9.117188 9.078125 -9.484375 C 9.503906 -9.847656 9.71875 -10.367188 9.71875 -11.046875 C 9.71875 -11.691406 9.507812 -12.203125 9.09375 -12.578125 C 8.675781 -12.953125 8.050781 -13.140625 7.21875 -13.140625 L 4.3125 -13.140625 Z M 4.3125 -2.28125 L 7.453125 -2.28125 C 8.296875 -2.28125 8.945312 -2.472656 9.40625 -2.859375 C 9.863281 -3.253906 10.09375 -3.804688 10.09375 -4.515625 C 10.09375 -5.234375 9.847656 -5.796875 9.359375 -6.203125 C 8.878906 -6.609375 8.226562 -6.8125 7.40625 -6.8125 L 4.3125 -6.8125 Z M 4.3125 -2.28125 "/></g></g><g style="fill:#ffffff;fill-opacity:1;"><g transform="translate(161.49232, 175.84033)"><path style="stroke:none" d="M 1.4375 0 L 1.4375 -10.90625 L 3.9375 -10.90625 L 4.203125 -8.859375 C 4.597656 -9.566406 5.132812 -10.128906 5.8125 -10.546875 C 6.5 -10.960938 7.304688 -11.171875 8.234375 -11.171875 L 8.234375 -8.203125 L 7.4375 -8.203125 C 6.820312 -8.203125 6.269531 -8.109375 5.78125 -7.921875 C 5.300781 -7.734375 4.925781 -7.398438 4.65625 -6.921875 C 4.382812 -6.453125 4.25 -5.800781 4.25 -4.96875 L 4.25 0 Z M 1.4375 0 "/></g></g><g style="fill:#ffffff;fill-opacity:1;"><g transform="translate(169.718779, 175.84033)"><path style="stroke:none" d="M 5.515625 0.265625 C 4.148438 0.265625 3.097656 -0.15625 2.359375 -1 C 1.617188 -1.851562 1.25 -3.101562 1.25 -4.75 L 1.25 -10.90625 L 4.046875 -10.90625 L 4.046875 -5.015625 C 4.046875 -4.078125 4.234375 -3.359375 4.609375 -2.859375 C 4.992188 -2.359375 5.597656 -2.109375 6.421875 -2.109375 C 7.203125 -2.109375 7.84375 -2.382812 8.34375 -2.9375 C 8.851562 -3.5 9.109375 -4.28125 9.109375 -5.28125 L 9.109375 -10.90625 L 11.921875 -10.90625 L 11.921875 0 L 9.4375 0 L 9.21875 -1.84375 C 8.882812 -1.195312 8.394531 -0.679688 7.75 -0.296875 C 7.113281 0.078125 6.367188 0.265625 5.515625 0.265625 Z M 5.515625 0.265625 "/></g></g><g style="fill:#ffffff;fill-opacity:1;"><g transform="translate(182.608408, 175.84033)"><path style="stroke:none" d="M 1.4375 0 L 1.4375 -10.90625 L 3.921875 -10.90625 L 4.140625 -9.0625 C 4.472656 -9.707031 4.957031 -10.21875 5.59375 -10.59375 C 6.238281 -10.976562 6.992188 -11.171875 7.859375 -11.171875 C 9.203125 -11.171875 10.25 -10.742188 11 -9.890625 C 11.75 -9.046875 12.125 -7.800781 12.125 -6.15625 L 12.125 0 L 9.3125 0 L 9.3125 -5.890625 C 9.3125 -6.828125 9.117188 -7.546875 8.734375 -8.046875 C 8.347656 -8.546875 7.753906 -8.796875 6.953125 -8.796875 C 6.160156 -8.796875 5.507812 -8.515625 5 -7.953125 C 4.5 -7.398438 4.25 -6.625 4.25 -5.625 L 4.25 0 Z M 1.4375 0 "/></g></g><g style="fill:#ffffff;fill-opacity:1;"><g transform="translate(195.498036, 175.84033)"><path style="stroke:none" d="M 6.671875 0.265625 C 5.609375 0.265625 4.65625 0.0234375 3.8125 -0.453125 C 2.96875 -0.941406 2.300781 -1.613281 1.8125 -2.46875 C 1.320312 -3.332031 1.078125 -4.328125 1.078125 -5.453125 C 1.078125 -6.585938 1.328125 -7.582031 1.828125 -8.4375 C 2.328125 -9.289062 3 -9.957031 3.84375 -10.4375 C 4.6875 -10.925781 5.632812 -11.171875 6.6875 -11.171875 C 7.726562 -11.171875 8.671875 -10.925781 9.515625 -10.4375 C 10.359375 -9.957031 11.023438 -9.289062 11.515625 -8.4375 C 12.003906 -7.582031 12.25 -6.585938 12.25 -5.453125 C 12.25 -4.328125 12.003906 -3.332031 11.515625 -2.46875 C 11.023438 -1.613281 10.351562 -0.941406 9.5 -0.453125 C 8.65625 0.0234375 7.710938 0.265625 6.671875 0.265625 Z M 6.671875 -2.171875 C 7.398438 -2.171875 8.035156 -2.445312 8.578125 -3 C 9.117188 -3.550781 9.390625 -4.367188 9.390625 -5.453125 C 9.390625 -6.535156 9.117188 -7.351562 8.578125 -7.90625 C 8.035156 -8.457031 7.40625 -8.734375 6.6875 -8.734375 C 5.9375 -8.734375 5.289062 -8.457031 4.75 -7.90625 C 4.21875 -7.351562 3.953125 -6.535156 3.953125 -5.453125 C 3.953125 -4.367188 4.21875 -3.550781 4.75 -3 C 5.289062 -2.445312 5.929688 -2.171875 6.671875 -2.171875 Z M 6.671875 -2.171875 "/></g></g><g style="fill:#ffffff;fill-opacity:1;"><g transform="translate(208.343661, 175.84033)"><path style="stroke:none" d=""/></g></g><g style="fill:#ffffff;fill-opacity:1;"><g transform="translate(213.094733, 175.84033)"><path style="stroke:none" d="M 1.5 0 L 1.5 -15.40625 L 7.1875 -15.40625 C 8.425781 -15.40625 9.445312 -15.195312 10.25 -14.78125 C 11.0625 -14.375 11.664062 -13.8125 12.0625 -13.09375 C 12.457031 -12.375 12.65625 -11.566406 12.65625 -10.671875 C 12.65625 -9.816406 12.460938 -9.035156 12.078125 -8.328125 C 11.691406 -7.617188 11.097656 -7.046875 10.296875 -6.609375 C 9.492188 -6.179688 8.457031 -5.96875 7.1875 -5.96875 L 4.3125 -5.96875 L 4.3125 0 Z M 4.3125 -8.25 L 7.015625 -8.25 C 7.992188 -8.25 8.703125 -8.460938 9.140625 -8.890625 C 9.578125 -9.328125 9.796875 -9.921875 9.796875 -10.671875 C 9.796875 -11.429688 9.578125 -12.023438 9.140625 -12.453125 C 8.703125 -12.890625 7.992188 -13.109375 7.015625 -13.109375 L 4.3125 -13.109375 Z M 4.3125 -8.25 "/></g></g><g style="fill:#ffffff;fill-opacity:1;"><g transform="translate(225.962355, 175.84033)"><path style="stroke:none" d="M 2.953125 -12.609375 C 2.429688 -12.609375 2.003906 -12.757812 1.671875 -13.0625 C 1.347656 -13.375 1.1875 -13.765625 1.1875 -14.234375 C 1.1875 -14.703125 1.347656 -15.085938 1.671875 -15.390625 C 2.003906 -15.691406 2.429688 -15.84375 2.953125 -15.84375 C 3.460938 -15.84375 3.878906 -15.691406 4.203125 -15.390625 C 4.535156 -15.085938 4.703125 -14.703125 4.703125 -14.234375 C 4.703125 -13.765625 4.535156 -13.375 4.203125 -13.0625 C 3.878906 -12.757812 3.460938 -12.609375 2.953125 -12.609375 Z M 1.546875 0 L 1.546875 -10.90625 L 4.359375 -10.90625 L 4.359375 0 Z M 1.546875 0 "/></g></g><g style="fill:#ffffff;fill-opacity:1;"><g transform="translate(231.35132, 175.84033)"><path style="stroke:none" d="M 6.671875 0.265625 C 5.609375 0.265625 4.65625 0.0234375 3.8125 -0.453125 C 2.96875 -0.941406 2.300781 -1.613281 1.8125 -2.46875 C 1.320312 -3.332031 1.078125 -4.328125 1.078125 -5.453125 C 1.078125 -6.585938 1.328125 -7.582031 1.828125 -8.4375 C 2.328125 -9.289062 3 -9.957031 3.84375 -10.4375 C 4.6875 -10.925781 5.632812 -11.171875 6.6875 -11.171875 C 7.726562 -11.171875 8.671875 -10.925781 9.515625 -10.4375 C 10.359375 -9.957031 11.023438 -9.289062 11.515625 -8.4375 C 12.003906 -7.582031 12.25 -6.585938 12.25 -5.453125 C 12.25 -4.328125 12.003906 -3.332031 11.515625 -2.46875 C 11.023438 -1.613281 10.351562 -0.941406 9.5 -0.453125 C 8.65625 0.0234375 7.710938 0.265625 6.671875 0.265625 Z M 6.671875 -2.171875 C 7.398438 -2.171875 8.035156 -2.445312 8.578125 -3 C 9.117188 -3.550781 9.390625 -4.367188 9.390625 -5.453125 C 9.390625 -6.535156 9.117188 -7.351562 8.578125 -7.90625 C 8.035156 -8.457031 7.40625 -8.734375 6.6875 -8.734375 C 5.9375 -8.734375 5.289062 -8.457031 4.75 -7.90625 C 4.21875 -7.351562 3.953125 -6.535156 3.953125 -5.453125 C 3.953125 -4.367188 4.21875 -3.550781 4.75 -3 C 5.289062 -2.445312 5.929688 -2.171875 6.671875 -2.171875 Z M 6.671875 -2.171875 "/></g></g><g style="fill:#ffffff;fill-opacity:1;"><g transform="translate(244.196946, 175.84033)"><path style="stroke:none" d="M 1.4375 0 L 1.4375 -10.90625 L 3.9375 -10.90625 L 4.203125 -8.859375 C 4.597656 -9.566406 5.132812 -10.128906 5.8125 -10.546875 C 6.5 -10.960938 7.304688 -11.171875 8.234375 -11.171875 L 8.234375 -8.203125 L 7.4375 -8.203125 C 6.820312 -8.203125 6.269531 -8.109375 5.78125 -7.921875 C 5.300781 -7.734375 4.925781 -7.398438 4.65625 -6.921875 C 4.382812 -6.453125 4.25 -5.800781 4.25 -4.96875 L 4.25 0 Z M 1.4375 0 "/></g></g><g style="fill:#ffffff;fill-opacity:1;"><g transform="translate(252.423405, 175.84033)"><path style="stroke:none" d="M 1.4375 0 L 1.4375 -10.90625 L 3.921875 -10.90625 L 4.140625 -9.0625 C 4.472656 -9.707031 4.957031 -10.21875 5.59375 -10.59375 C 6.238281 -10.976562 6.992188 -11.171875 7.859375 -11.171875 C 9.203125 -11.171875 10.25 -10.742188 11 -9.890625 C 11.75 -9.046875 12.125 -7.800781 12.125 -6.15625 L 12.125 0 L 9.3125 0 L 9.3125 -5.890625 C 9.3125 -6.828125 9.117188 -7.546875 8.734375 -8.046875 C 8.347656 -8.546875 7.753906 -8.796875 6.953125 -8.796875 C 6.160156 -8.796875 5.507812 -8.515625 5 -7.953125 C 4.5 -7.398438 4.25 -6.625 4.25 -5.625 L 4.25 0 Z M 1.4375 0 "/></g></g><g style="fill:#ffffff;fill-opacity:1;"><g transform="translate(265.313033, 175.84033)"><path style="stroke:none" d="M 6.671875 0.265625 C 5.609375 0.265625 4.65625 0.0234375 3.8125 -0.453125 C 2.96875 -0.941406 2.300781 -1.613281 1.8125 -2.46875 C 1.320312 -3.332031 1.078125 -4.328125 1.078125 -5.453125 C 1.078125 -6.585938 1.328125 -7.582031 1.828125 -8.4375 C 2.328125 -9.289062 3 -9.957031 3.84375 -10.4375 C 4.6875 -10.925781 5.632812 -11.171875 6.6875 -11.171875 C 7.726562 -11.171875 8.671875 -10.925781 9.515625 -10.4375 C 10.359375 -9.957031 11.023438 -9.289062 11.515625 -8.4375 C 12.003906 -7.582031 12.25 -6.585938 12.25 -5.453125 C 12.25 -4.328125 12.003906 -3.332031 11.515625 -2.46875 C 11.023438 -1.613281 10.351562 -0.941406 9.5 -0.453125 C 8.65625 0.0234375 7.710938 0.265625 6.671875 0.265625 Z M 6.671875 -2.171875 C 7.398438 -2.171875 8.035156 -2.445312 8.578125 -3 C 9.117188 -3.550781 9.390625 -4.367188 9.390625 -5.453125 C 9.390625 -6.535156 9.117188 -7.351562 8.578125 -7.90625 C 8.035156 -8.457031 7.40625 -8.734375 6.6875 -8.734375 C 5.9375 -8.734375 5.289062 -8.457031 4.75 -7.90625 C 4.21875 -7.351562 3.953125 -6.535156 3.953125 -5.453125 C 3.953125 -4.367188 4.21875 -3.550781 4.75 -3 C 5.289062 -2.445312 5.929688 -2.171875 6.671875 -2.171875 Z M 6.671875 -2.171875 "/></g></g><g style="fill:#ffffff;fill-opacity:1;"><g transform="translate(148.096783, 191.449689)"><path style="stroke:none" d="M 0.625 -0.375 C 0.882812 -0.382812 1.070312 -0.441406 1.1875 -0.546875 C 1.300781 -0.660156 1.363281 -0.796875 1.375 -0.953125 C 1.394531 -1.109375 1.40625 -1.378906 1.40625 -1.765625 L 1.40625 -6.640625 C 1.40625 -6.953125 1.414062 -7.222656 1.4375 -7.453125 L 0.625 -7.40625 L 0.625 -7.890625 L 3.28125 -7.90625 C 4.695312 -7.914062 5.816406 -7.582031 6.640625 -6.90625 C 7.472656 -6.238281 7.890625 -5.25 7.890625 -3.9375 C 7.890625 -3.226562 7.722656 -2.570312 7.390625 -1.96875 C 7.054688 -1.375 6.566406 -0.894531 5.921875 -0.53125 C 5.273438 -0.175781 4.5 0 3.59375 0 L 0.625 0 Z M 3.546875 -0.421875 C 4.179688 -0.421875 4.742188 -0.578125 5.234375 -0.890625 C 5.722656 -1.203125 6.101562 -1.628906 6.375 -2.171875 C 6.644531 -2.710938 6.78125 -3.316406 6.78125 -3.984375 C 6.78125 -5.078125 6.476562 -5.929688 5.875 -6.546875 C 5.269531 -7.171875 4.363281 -7.484375 3.15625 -7.484375 C 2.894531 -7.484375 2.707031 -7.429688 2.59375 -7.328125 C 2.476562 -7.222656 2.410156 -7.09375 2.390625 -6.9375 C 2.378906 -6.789062 2.375 -6.523438 2.375 -6.140625 L 2.375 -1.328125 C 2.375 -0.941406 2.363281 -0.648438 2.34375 -0.453125 C 2.601562 -0.429688 3.003906 -0.421875 3.546875 -0.421875 Z M 3.546875 -0.421875 "/></g></g><g style="fill:#ffffff;fill-opacity:1;"><g transform="translate(156.247749, 191.449689)"><path style="stroke:none" d="M 3.21875 0.1875 C 2.707031 0.1875 2.242188 0.0664062 1.828125 -0.171875 C 1.410156 -0.421875 1.078125 -0.773438 0.828125 -1.234375 C 0.585938 -1.691406 0.46875 -2.21875 0.46875 -2.8125 C 0.46875 -3.332031 0.585938 -3.820312 0.828125 -4.28125 C 1.078125 -4.75 1.414062 -5.125 1.84375 -5.40625 C 2.28125 -5.6875 2.769531 -5.828125 3.3125 -5.828125 C 3.738281 -5.828125 4.125 -5.726562 4.46875 -5.53125 C 4.820312 -5.34375 5.097656 -5.0625 5.296875 -4.6875 C 5.503906 -4.320312 5.609375 -3.867188 5.609375 -3.328125 L 1.640625 -3.265625 C 1.628906 -2.359375 1.773438 -1.648438 2.078125 -1.140625 C 2.378906 -0.640625 2.851562 -0.390625 3.5 -0.390625 C 3.84375 -0.390625 4.195312 -0.476562 4.5625 -0.65625 C 4.925781 -0.84375 5.207031 -1.066406 5.40625 -1.328125 L 5.671875 -1.109375 C 5.390625 -0.671875 5.019531 -0.34375 4.5625 -0.125 C 4.101562 0.0820312 3.65625 0.1875 3.21875 0.1875 Z M 4.546875 -3.734375 C 4.546875 -4.179688 4.441406 -4.566406 4.234375 -4.890625 C 4.035156 -5.210938 3.734375 -5.375 3.328125 -5.375 C 2.390625 -5.375 1.835938 -4.828125 1.671875 -3.734375 Z M 4.546875 -3.734375 "/></g></g><g style="fill:#ffffff;fill-opacity:1;"><g transform="translate(162.110127, 191.449689)"><path style="stroke:none" d="M 2.8125 0.1875 C 2.457031 0.1875 2.132812 0.140625 1.84375 0.046875 C 1.550781 -0.046875 1.296875 -0.164062 1.078125 -0.3125 L 1.125 0.078125 L 0.65625 0.078125 L 0.59375 -1.859375 L 0.9375 -1.859375 C 0.945312 -1.554688 1.03125 -1.28125 1.1875 -1.03125 C 1.34375 -0.789062 1.546875 -0.601562 1.796875 -0.46875 C 2.046875 -0.332031 2.316406 -0.265625 2.609375 -0.265625 C 2.929688 -0.265625 3.21875 -0.335938 3.46875 -0.484375 C 3.71875 -0.640625 3.84375 -0.863281 3.84375 -1.15625 C 3.84375 -1.363281 3.78125 -1.535156 3.65625 -1.671875 C 3.53125 -1.816406 3.375 -1.9375 3.1875 -2.03125 C 3.007812 -2.125 2.753906 -2.238281 2.421875 -2.375 C 2.023438 -2.519531 1.707031 -2.65625 1.46875 -2.78125 C 1.226562 -2.914062 1.019531 -3.097656 0.84375 -3.328125 C 0.675781 -3.554688 0.59375 -3.84375 0.59375 -4.1875 C 0.59375 -4.4375 0.648438 -4.679688 0.765625 -4.921875 C 0.890625 -5.171875 1.09375 -5.382812 1.375 -5.5625 C 1.664062 -5.738281 2.046875 -5.828125 2.515625 -5.828125 C 2.742188 -5.828125 2.976562 -5.785156 3.21875 -5.703125 C 3.46875 -5.628906 3.703125 -5.507812 3.921875 -5.34375 L 3.890625 -5.765625 L 4.359375 -5.765625 L 4.359375 -3.796875 L 4 -3.796875 C 3.976562 -4.222656 3.84375 -4.597656 3.59375 -4.921875 C 3.351562 -5.242188 3.015625 -5.40625 2.578125 -5.40625 C 2.234375 -5.40625 1.960938 -5.316406 1.765625 -5.140625 C 1.566406 -4.972656 1.46875 -4.773438 1.46875 -4.546875 C 1.46875 -4.328125 1.53125 -4.140625 1.65625 -3.984375 C 1.789062 -3.835938 1.957031 -3.710938 2.15625 -3.609375 C 2.351562 -3.503906 2.613281 -3.390625 2.9375 -3.265625 C 3.332031 -3.097656 3.648438 -2.945312 3.890625 -2.8125 C 4.128906 -2.6875 4.332031 -2.507812 4.5 -2.28125 C 4.675781 -2.0625 4.765625 -1.796875 4.765625 -1.484375 C 4.765625 -1.117188 4.671875 -0.8125 4.484375 -0.5625 C 4.296875 -0.3125 4.050781 -0.125 3.75 0 C 3.457031 0.125 3.144531 0.1875 2.8125 0.1875 Z M 2.8125 0.1875 "/></g></g><g style="fill:#ffffff;fill-opacity:1;"><g transform="translate(167.081883, 191.449689)"><path style="stroke:none" d="M 2.078125 0.1875 C 1.523438 0.1875 1.101562 0.0625 0.8125 -0.1875 C 0.53125 -0.4375 0.390625 -0.757812 0.390625 -1.15625 C 0.390625 -1.59375 0.5625 -1.960938 0.90625 -2.265625 C 1.257812 -2.566406 1.695312 -2.789062 2.21875 -2.9375 C 2.75 -3.082031 3.285156 -3.148438 3.828125 -3.140625 L 3.828125 -3.84375 C 3.828125 -4.332031 3.753906 -4.710938 3.609375 -4.984375 C 3.460938 -5.265625 3.160156 -5.40625 2.703125 -5.40625 C 2.460938 -5.40625 2.238281 -5.351562 2.03125 -5.25 C 1.820312 -5.15625 1.664062 -5.007812 1.5625 -4.8125 C 1.664062 -4.707031 1.71875 -4.566406 1.71875 -4.390625 C 1.71875 -4.273438 1.675781 -4.164062 1.59375 -4.0625 C 1.507812 -3.96875 1.390625 -3.921875 1.234375 -3.921875 C 1.078125 -3.921875 0.953125 -3.96875 0.859375 -4.0625 C 0.765625 -4.164062 0.71875 -4.300781 0.71875 -4.46875 C 0.71875 -4.71875 0.8125 -4.941406 1 -5.140625 C 1.195312 -5.347656 1.46875 -5.515625 1.8125 -5.640625 C 2.15625 -5.765625 2.535156 -5.828125 2.953125 -5.828125 C 3.585938 -5.828125 4.054688 -5.65625 4.359375 -5.3125 C 4.660156 -4.976562 4.804688 -4.453125 4.796875 -3.734375 L 4.78125 -1.203125 C 4.78125 -0.953125 4.765625 -0.691406 4.734375 -0.421875 L 5.546875 -0.46875 L 5.546875 0 L 3.921875 0 C 3.898438 -0.113281 3.875 -0.328125 3.84375 -0.640625 C 3.289062 -0.0859375 2.703125 0.1875 2.078125 0.1875 Z M 2.328125 -0.46875 C 2.617188 -0.46875 2.878906 -0.519531 3.109375 -0.625 C 3.347656 -0.738281 3.585938 -0.90625 3.828125 -1.125 C 3.816406 -1.238281 3.8125 -1.429688 3.8125 -1.703125 L 3.828125 -2.765625 C 3.210938 -2.742188 2.660156 -2.617188 2.171875 -2.390625 C 1.691406 -2.160156 1.453125 -1.804688 1.453125 -1.328125 C 1.453125 -1.046875 1.535156 -0.832031 1.703125 -0.6875 C 1.867188 -0.539062 2.078125 -0.46875 2.328125 -0.46875 Z M 2.328125 -0.46875 "/></g></g><g style="fill:#ffffff;fill-opacity:1;"><g transform="translate(172.651143, 191.449689)"><path style="stroke:none" d="M 0.5 -0.34375 C 0.71875 -0.34375 0.875 -0.394531 0.96875 -0.5 C 1.0625 -0.613281 1.113281 -0.753906 1.125 -0.921875 C 1.144531 -1.085938 1.15625 -1.351562 1.15625 -1.71875 L 1.15625 -4.28125 C 1.15625 -4.601562 1.171875 -4.847656 1.203125 -5.015625 L 0.40625 -4.984375 L 0.40625 -5.453125 L 0.75 -5.453125 C 1.039062 -5.453125 1.25 -5.472656 1.375 -5.515625 C 1.5 -5.566406 1.617188 -5.644531 1.734375 -5.75 L 2.0625 -5.75 C 2.09375 -5.457031 2.113281 -5.085938 2.125 -4.640625 C 2.3125 -4.941406 2.578125 -5.210938 2.921875 -5.453125 C 3.273438 -5.703125 3.640625 -5.828125 4.015625 -5.828125 C 4.242188 -5.828125 4.429688 -5.765625 4.578125 -5.640625 C 4.734375 -5.515625 4.8125 -5.335938 4.8125 -5.109375 C 4.8125 -4.992188 4.765625 -4.875 4.671875 -4.75 C 4.578125 -4.625 4.441406 -4.5625 4.265625 -4.5625 C 4.097656 -4.5625 3.960938 -4.625 3.859375 -4.75 C 3.753906 -4.875 3.710938 -5.023438 3.734375 -5.203125 C 3.453125 -5.210938 3.164062 -5.101562 2.875 -4.875 C 2.582031 -4.644531 2.332031 -4.34375 2.125 -3.96875 L 2.140625 -1.203125 C 2.140625 -0.859375 2.125 -0.597656 2.09375 -0.421875 L 2.8125 -0.46875 L 2.8125 0 L 0.5 0 Z M 0.5 -0.34375 "/></g></g><g style="fill:#ffffff;fill-opacity:1;"><g transform="translate(177.284677, 191.449689)"><path style="stroke:none" d="M 0.5 -0.34375 C 0.71875 -0.34375 0.875 -0.394531 0.96875 -0.5 C 1.0625 -0.613281 1.113281 -0.753906 1.125 -0.921875 C 1.144531 -1.085938 1.15625 -1.351562 1.15625 -1.71875 L 1.15625 -4.28125 C 1.15625 -4.601562 1.171875 -4.847656 1.203125 -5.015625 L 0.40625 -4.984375 L 0.40625 -5.453125 L 0.75 -5.453125 C 1.039062 -5.453125 1.25 -5.472656 1.375 -5.515625 C 1.5 -5.566406 1.617188 -5.644531 1.734375 -5.75 L 2.0625 -5.75 C 2.09375 -5.457031 2.113281 -5.085938 2.125 -4.640625 C 2.3125 -4.941406 2.578125 -5.210938 2.921875 -5.453125 C 3.273438 -5.703125 3.640625 -5.828125 4.015625 -5.828125 C 4.242188 -5.828125 4.429688 -5.765625 4.578125 -5.640625 C 4.734375 -5.515625 4.8125 -5.335938 4.8125 -5.109375 C 4.8125 -4.992188 4.765625 -4.875 4.671875 -4.75 C 4.578125 -4.625 4.441406 -4.5625 4.265625 -4.5625 C 4.097656 -4.5625 3.960938 -4.625 3.859375 -4.75 C 3.753906 -4.875 3.710938 -5.023438 3.734375 -5.203125 C 3.453125 -5.210938 3.164062 -5.101562 2.875 -4.875 C 2.582031 -4.644531 2.332031 -4.34375 2.125 -3.96875 L 2.140625 -1.203125 C 2.140625 -0.859375 2.125 -0.597656 2.09375 -0.421875 L 2.8125 -0.46875 L 2.8125 0 L 0.5 0 Z M 0.5 -0.34375 "/></g></g><g style="fill:#ffffff;fill-opacity:1;"><g transform="translate(181.918212, 191.449689)"><path style="stroke:none" d="M 3.296875 0.1875 C 2.773438 0.1875 2.296875 0.0664062 1.859375 -0.171875 C 1.429688 -0.421875 1.09375 -0.765625 0.84375 -1.203125 C 0.59375 -1.640625 0.46875 -2.132812 0.46875 -2.6875 C 0.46875 -3.269531 0.585938 -3.800781 0.828125 -4.28125 C 1.078125 -4.757812 1.414062 -5.132812 1.84375 -5.40625 C 2.28125 -5.6875 2.765625 -5.828125 3.296875 -5.828125 C 3.816406 -5.828125 4.289062 -5.695312 4.71875 -5.4375 C 5.15625 -5.1875 5.5 -4.84375 5.75 -4.40625 C 6.007812 -3.96875 6.140625 -3.484375 6.140625 -2.953125 C 6.140625 -2.378906 6.007812 -1.851562 5.75 -1.375 C 5.5 -0.894531 5.15625 -0.515625 4.71875 -0.234375 C 4.289062 0.046875 3.816406 0.1875 3.296875 0.1875 Z M 3.390625 -0.265625 C 3.929688 -0.265625 4.332031 -0.488281 4.59375 -0.9375 C 4.851562 -1.394531 4.984375 -1.957031 4.984375 -2.625 C 4.984375 -3.382812 4.84375 -4.035156 4.5625 -4.578125 C 4.28125 -5.117188 3.859375 -5.390625 3.296875 -5.390625 C 2.734375 -5.390625 2.3125 -5.160156 2.03125 -4.703125 C 1.75 -4.242188 1.609375 -3.679688 1.609375 -3.015625 C 1.609375 -2.535156 1.675781 -2.082031 1.8125 -1.65625 C 1.945312 -1.238281 2.144531 -0.898438 2.40625 -0.640625 C 2.675781 -0.390625 3.003906 -0.265625 3.390625 -0.265625 Z M 3.390625 -0.265625 "/></g></g><g style="fill:#ffffff;fill-opacity:1;"><g transform="translate(188.265365, 191.449689)"><path style="stroke:none" d="M 0.390625 -0.34375 C 0.597656 -0.34375 0.75 -0.394531 0.84375 -0.5 C 0.945312 -0.613281 1.003906 -0.753906 1.015625 -0.921875 C 1.035156 -1.085938 1.046875 -1.351562 1.046875 -1.71875 L 1.046875 -7.046875 C 1.046875 -7.335938 1.054688 -7.582031 1.078125 -7.78125 L 0.28125 -7.734375 L 0.28125 -8.21875 C 0.726562 -8.21875 1.046875 -8.242188 1.234375 -8.296875 C 1.429688 -8.347656 1.582031 -8.421875 1.6875 -8.515625 L 2.015625 -8.515625 L 2.03125 -1.203125 C 2.03125 -0.898438 2.007812 -0.640625 1.96875 -0.421875 L 2.6875 -0.46875 L 2.6875 0 L 0.390625 0 Z M 0.390625 -0.34375 "/></g></g><g style="fill:#ffffff;fill-opacity:1;"><g transform="translate(191.083819, 191.449689)"><path style="stroke:none" d="M 0.390625 -0.34375 C 0.597656 -0.34375 0.75 -0.394531 0.84375 -0.5 C 0.945312 -0.613281 1.003906 -0.753906 1.015625 -0.921875 C 1.035156 -1.085938 1.046875 -1.351562 1.046875 -1.71875 L 1.046875 -7.046875 C 1.046875 -7.335938 1.054688 -7.582031 1.078125 -7.78125 L 0.28125 -7.734375 L 0.28125 -8.21875 C 0.726562 -8.21875 1.046875 -8.242188 1.234375 -8.296875 C 1.429688 -8.347656 1.582031 -8.421875 1.6875 -8.515625 L 2.015625 -8.515625 L 2.03125 -1.203125 C 2.03125 -0.898438 2.007812 -0.640625 1.96875 -0.421875 L 2.6875 -0.46875 L 2.6875 0 L 0.390625 0 Z M 0.390625 -0.34375 "/></g></g><g style="fill:#ffffff;fill-opacity:1;"><g transform="translate(193.902273, 191.449689)"><path style="stroke:none" d="M 3.296875 0.1875 C 2.773438 0.1875 2.296875 0.0664062 1.859375 -0.171875 C 1.429688 -0.421875 1.09375 -0.765625 0.84375 -1.203125 C 0.59375 -1.640625 0.46875 -2.132812 0.46875 -2.6875 C 0.46875 -3.269531 0.585938 -3.800781 0.828125 -4.28125 C 1.078125 -4.757812 1.414062 -5.132812 1.84375 -5.40625 C 2.28125 -5.6875 2.765625 -5.828125 3.296875 -5.828125 C 3.816406 -5.828125 4.289062 -5.695312 4.71875 -5.4375 C 5.15625 -5.1875 5.5 -4.84375 5.75 -4.40625 C 6.007812 -3.96875 6.140625 -3.484375 6.140625 -2.953125 C 6.140625 -2.378906 6.007812 -1.851562 5.75 -1.375 C 5.5 -0.894531 5.15625 -0.515625 4.71875 -0.234375 C 4.289062 0.046875 3.816406 0.1875 3.296875 0.1875 Z M 3.390625 -0.265625 C 3.929688 -0.265625 4.332031 -0.488281 4.59375 -0.9375 C 4.851562 -1.394531 4.984375 -1.957031 4.984375 -2.625 C 4.984375 -3.382812 4.84375 -4.035156 4.5625 -4.578125 C 4.28125 -5.117188 3.859375 -5.390625 3.296875 -5.390625 C 2.734375 -5.390625 2.3125 -5.160156 2.03125 -4.703125 C 1.75 -4.242188 1.609375 -3.679688 1.609375 -3.015625 C 1.609375 -2.535156 1.675781 -2.082031 1.8125 -1.65625 C 1.945312 -1.238281 2.144531 -0.898438 2.40625 -0.640625 C 2.675781 -0.390625 3.003906 -0.265625 3.390625 -0.265625 Z M 3.390625 -0.265625 "/></g></g><g style="fill:#ffffff;fill-opacity:1;"><g transform="translate(200.249426, 191.449689)"><path style="stroke:none" d=""/></g></g><g style="fill:#ffffff;fill-opacity:1;"><g transform="translate(202.966419, 191.449689)"><path style="stroke:none" d="M 2.90625 0.1875 C 2.445312 0.1875 2.03125 0.0703125 1.65625 -0.15625 C 1.289062 -0.394531 1 -0.726562 0.78125 -1.15625 C 0.570312 -1.59375 0.46875 -2.09375 0.46875 -2.65625 C 0.46875 -3.257812 0.59375 -3.800781 0.84375 -4.28125 C 1.09375 -4.769531 1.4375 -5.148438 1.875 -5.421875 C 2.3125 -5.691406 2.8125 -5.828125 3.375 -5.828125 C 3.601562 -5.828125 3.835938 -5.789062 4.078125 -5.71875 C 4.328125 -5.65625 4.53125 -5.582031 4.6875 -5.5 L 4.6875 -7.046875 C 4.6875 -7.335938 4.703125 -7.582031 4.734375 -7.78125 L 3.921875 -7.734375 L 3.921875 -8.21875 C 4.367188 -8.21875 4.6875 -8.242188 4.875 -8.296875 C 5.070312 -8.347656 5.222656 -8.421875 5.328125 -8.515625 L 5.65625 -8.515625 L 5.65625 -1.203125 C 5.65625 -0.953125 5.640625 -0.691406 5.609375 -0.421875 L 6.40625 -0.46875 L 6.40625 0 L 4.796875 0 C 4.753906 -0.195312 4.726562 -0.394531 4.71875 -0.59375 C 4.5 -0.34375 4.234375 -0.148438 3.921875 -0.015625 C 3.609375 0.117188 3.269531 0.1875 2.90625 0.1875 Z M 3.3125 -0.375 C 3.550781 -0.375 3.796875 -0.441406 4.046875 -0.578125 C 4.304688 -0.722656 4.519531 -0.898438 4.6875 -1.109375 C 4.6875 -1.234375 4.6875 -1.441406 4.6875 -1.734375 L 4.6875 -4.984375 C 4.332031 -5.242188 3.914062 -5.375 3.4375 -5.375 C 2.894531 -5.375 2.457031 -5.148438 2.125 -4.703125 C 1.800781 -4.253906 1.640625 -3.664062 1.640625 -2.9375 C 1.640625 -2.164062 1.785156 -1.546875 2.078125 -1.078125 C 2.367188 -0.609375 2.78125 -0.375 3.3125 -0.375 Z M 3.3125 -0.375 "/></g></g><g style="fill:#ffffff;fill-opacity:1;"><g transform="translate(209.460136, 191.449689)"><path style="stroke:none" d="M 3.21875 0.1875 C 2.707031 0.1875 2.242188 0.0664062 1.828125 -0.171875 C 1.410156 -0.421875 1.078125 -0.773438 0.828125 -1.234375 C 0.585938 -1.691406 0.46875 -2.21875 0.46875 -2.8125 C 0.46875 -3.332031 0.585938 -3.820312 0.828125 -4.28125 C 1.078125 -4.75 1.414062 -5.125 1.84375 -5.40625 C 2.28125 -5.6875 2.769531 -5.828125 3.3125 -5.828125 C 3.738281 -5.828125 4.125 -5.726562 4.46875 -5.53125 C 4.820312 -5.34375 5.097656 -5.0625 5.296875 -4.6875 C 5.503906 -4.320312 5.609375 -3.867188 5.609375 -3.328125 L 1.640625 -3.265625 C 1.628906 -2.359375 1.773438 -1.648438 2.078125 -1.140625 C 2.378906 -0.640625 2.851562 -0.390625 3.5 -0.390625 C 3.84375 -0.390625 4.195312 -0.476562 4.5625 -0.65625 C 4.925781 -0.84375 5.207031 -1.066406 5.40625 -1.328125 L 5.671875 -1.109375 C 5.390625 -0.671875 5.019531 -0.34375 4.5625 -0.125 C 4.101562 0.0820312 3.65625 0.1875 3.21875 0.1875 Z M 4.546875 -3.734375 C 4.546875 -4.179688 4.441406 -4.566406 4.234375 -4.890625 C 4.035156 -5.210938 3.734375 -5.375 3.328125 -5.375 C 2.390625 -5.375 1.835938 -4.828125 1.671875 -3.734375 Z M 4.546875 -3.734375 "/></g></g><g style="fill:#ffffff;fill-opacity:1;"><g transform="translate(215.322515, 191.449689)"><path style="stroke:none" d=""/></g></g><g style="fill:#ffffff;fill-opacity:1;"><g transform="translate(218.039507, 191.449689)"><path style="stroke:none" d="M 3.265625 0.1875 C 2.910156 0.1875 2.550781 0.132812 2.1875 0.03125 C 1.832031 -0.0625 1.519531 -0.203125 1.25 -0.390625 L 1.3125 0.09375 L 0.71875 0.09375 L 0.65625 -2.3125 L 1.09375 -2.3125 C 1.132812 -1.664062 1.359375 -1.164062 1.765625 -0.8125 C 2.171875 -0.46875 2.6875 -0.296875 3.3125 -0.296875 C 3.769531 -0.296875 4.15625 -0.421875 4.46875 -0.671875 C 4.78125 -0.921875 4.9375 -1.265625 4.9375 -1.703125 C 4.9375 -2.023438 4.847656 -2.300781 4.671875 -2.53125 C 4.492188 -2.757812 4.273438 -2.953125 4.015625 -3.109375 C 3.753906 -3.265625 3.398438 -3.441406 2.953125 -3.640625 C 2.453125 -3.878906 2.050781 -4.085938 1.75 -4.265625 C 1.457031 -4.453125 1.203125 -4.691406 0.984375 -4.984375 C 0.773438 -5.285156 0.671875 -5.65625 0.671875 -6.09375 C 0.671875 -6.394531 0.738281 -6.695312 0.875 -7 C 1.019531 -7.300781 1.265625 -7.554688 1.609375 -7.765625 C 1.953125 -7.972656 2.40625 -8.078125 2.96875 -8.078125 C 3.300781 -8.078125 3.640625 -8.03125 3.984375 -7.9375 C 4.328125 -7.851562 4.644531 -7.707031 4.9375 -7.5 L 4.890625 -7.984375 L 5.453125 -7.984375 L 5.453125 -5.5 L 5.046875 -5.5 C 5.015625 -6.09375 4.828125 -6.59375 4.484375 -7 C 4.140625 -7.414062 3.660156 -7.625 3.046875 -7.625 C 2.597656 -7.625 2.242188 -7.5 1.984375 -7.25 C 1.734375 -7 1.609375 -6.6875 1.609375 -6.3125 C 1.609375 -6.007812 1.691406 -5.75 1.859375 -5.53125 C 2.035156 -5.3125 2.242188 -5.128906 2.484375 -4.984375 C 2.734375 -4.835938 3.085938 -4.660156 3.546875 -4.453125 C 4.054688 -4.222656 4.46875 -4.015625 4.78125 -3.828125 C 5.09375 -3.640625 5.359375 -3.390625 5.578125 -3.078125 C 5.796875 -2.773438 5.90625 -2.40625 5.90625 -1.96875 C 5.90625 -1.539062 5.800781 -1.164062 5.59375 -0.84375 C 5.382812 -0.519531 5.078125 -0.265625 4.671875 -0.078125 C 4.273438 0.0976562 3.804688 0.1875 3.265625 0.1875 Z M 3.265625 0.1875 "/></g></g><g style="fill:#ffffff;fill-opacity:1;"><g transform="translate(224.183736, 191.449689)"><path style="stroke:none" d="M 1.609375 -6.875 C 1.453125 -6.875 1.3125 -6.9375 1.1875 -7.0625 C 1.070312 -7.195312 1.015625 -7.351562 1.015625 -7.53125 C 1.015625 -7.71875 1.078125 -7.878906 1.203125 -8.015625 C 1.328125 -8.148438 1.46875 -8.21875 1.625 -8.21875 C 1.800781 -8.21875 1.945312 -8.148438 2.0625 -8.015625 C 2.175781 -7.878906 2.234375 -7.71875 2.234375 -7.53125 C 2.234375 -7.351562 2.171875 -7.195312 2.046875 -7.0625 C 1.921875 -6.9375 1.773438 -6.875 1.609375 -6.875 Z M 0.5 -0.34375 C 0.71875 -0.34375 0.875 -0.394531 0.96875 -0.5 C 1.0625 -0.613281 1.113281 -0.753906 1.125 -0.921875 C 1.144531 -1.085938 1.15625 -1.351562 1.15625 -1.71875 L 1.15625 -4.28125 C 1.15625 -4.5 1.171875 -4.742188 1.203125 -5.015625 L 0.40625 -4.96875 L 0.40625 -5.453125 C 0.851562 -5.453125 1.171875 -5.476562 1.359375 -5.53125 C 1.546875 -5.582031 1.695312 -5.65625 1.8125 -5.75 L 2.125 -5.75 L 2.125 -1.203125 C 2.125 -0.859375 2.113281 -0.597656 2.09375 -0.421875 L 2.796875 -0.46875 L 2.796875 0 L 0.5 0 Z M 0.5 -0.34375 "/></g></g><g style="fill:#ffffff;fill-opacity:1;"><g transform="translate(227.103652, 191.449689)"><path style="stroke:none" d="M 2.8125 0.1875 C 2.457031 0.1875 2.132812 0.140625 1.84375 0.046875 C 1.550781 -0.046875 1.296875 -0.164062 1.078125 -0.3125 L 1.125 0.078125 L 0.65625 0.078125 L 0.59375 -1.859375 L 0.9375 -1.859375 C 0.945312 -1.554688 1.03125 -1.28125 1.1875 -1.03125 C 1.34375 -0.789062 1.546875 -0.601562 1.796875 -0.46875 C 2.046875 -0.332031 2.316406 -0.265625 2.609375 -0.265625 C 2.929688 -0.265625 3.21875 -0.335938 3.46875 -0.484375 C 3.71875 -0.640625 3.84375 -0.863281 3.84375 -1.15625 C 3.84375 -1.363281 3.78125 -1.535156 3.65625 -1.671875 C 3.53125 -1.816406 3.375 -1.9375 3.1875 -2.03125 C 3.007812 -2.125 2.753906 -2.238281 2.421875 -2.375 C 2.023438 -2.519531 1.707031 -2.65625 1.46875 -2.78125 C 1.226562 -2.914062 1.019531 -3.097656 0.84375 -3.328125 C 0.675781 -3.554688 0.59375 -3.84375 0.59375 -4.1875 C 0.59375 -4.4375 0.648438 -4.679688 0.765625 -4.921875 C 0.890625 -5.171875 1.09375 -5.382812 1.375 -5.5625 C 1.664062 -5.738281 2.046875 -5.828125 2.515625 -5.828125 C 2.742188 -5.828125 2.976562 -5.785156 3.21875 -5.703125 C 3.46875 -5.628906 3.703125 -5.507812 3.921875 -5.34375 L 3.890625 -5.765625 L 4.359375 -5.765625 L 4.359375 -3.796875 L 4 -3.796875 C 3.976562 -4.222656 3.84375 -4.597656 3.59375 -4.921875 C 3.351562 -5.242188 3.015625 -5.40625 2.578125 -5.40625 C 2.234375 -5.40625 1.960938 -5.316406 1.765625 -5.140625 C 1.566406 -4.972656 1.46875 -4.773438 1.46875 -4.546875 C 1.46875 -4.328125 1.53125 -4.140625 1.65625 -3.984375 C 1.789062 -3.835938 1.957031 -3.710938 2.15625 -3.609375 C 2.351562 -3.503906 2.613281 -3.390625 2.9375 -3.265625 C 3.332031 -3.097656 3.648438 -2.945312 3.890625 -2.8125 C 4.128906 -2.6875 4.332031 -2.507812 4.5 -2.28125 C 4.675781 -2.0625 4.765625 -1.796875 4.765625 -1.484375 C 4.765625 -1.117188 4.671875 -0.8125 4.484375 -0.5625 C 4.296875 -0.3125 4.050781 -0.125 3.75 0 C 3.457031 0.125 3.144531 0.1875 2.8125 0.1875 Z M 2.8125 0.1875 "/></g></g><g style="fill:#ffffff;fill-opacity:1;"><g transform="translate(232.075408, 191.449689)"><path style="stroke:none" d="M 2.625 0.1875 C 1.59375 0.1875 1.078125 -0.503906 1.078125 -1.890625 L 1.109375 -5.171875 L 0.234375 -5.15625 L 0.234375 -5.640625 C 0.597656 -5.648438 0.90625 -5.8125 1.15625 -6.125 C 1.40625 -6.445312 1.59375 -6.8125 1.71875 -7.21875 L 2.09375 -7.21875 L 2.09375 -5.640625 L 4 -5.640625 L 4 -5.203125 L 2.09375 -5.171875 C 2.09375 -4.023438 2.085938 -3.226562 2.078125 -2.78125 C 2.078125 -2.34375 2.078125 -2.097656 2.078125 -2.046875 C 2.078125 -1.503906 2.140625 -1.101562 2.265625 -0.84375 C 2.390625 -0.59375 2.613281 -0.46875 2.9375 -0.46875 C 3.125 -0.46875 3.3125 -0.523438 3.5 -0.640625 C 3.695312 -0.765625 3.867188 -0.929688 4.015625 -1.140625 L 4.328125 -0.890625 C 4.023438 -0.453125 3.726562 -0.160156 3.4375 -0.015625 C 3.15625 0.117188 2.882812 0.1875 2.625 0.1875 Z M 2.625 0.1875 "/></g></g><g style="fill:#ffffff;fill-opacity:1;"><g transform="translate(236.190354, 191.449689)"><path style="stroke:none" d="M 3.21875 0.1875 C 2.707031 0.1875 2.242188 0.0664062 1.828125 -0.171875 C 1.410156 -0.421875 1.078125 -0.773438 0.828125 -1.234375 C 0.585938 -1.691406 0.46875 -2.21875 0.46875 -2.8125 C 0.46875 -3.332031 0.585938 -3.820312 0.828125 -4.28125 C 1.078125 -4.75 1.414062 -5.125 1.84375 -5.40625 C 2.28125 -5.6875 2.769531 -5.828125 3.3125 -5.828125 C 3.738281 -5.828125 4.125 -5.726562 4.46875 -5.53125 C 4.820312 -5.34375 5.097656 -5.0625 5.296875 -4.6875 C 5.503906 -4.320312 5.609375 -3.867188 5.609375 -3.328125 L 1.640625 -3.265625 C 1.628906 -2.359375 1.773438 -1.648438 2.078125 -1.140625 C 2.378906 -0.640625 2.851562 -0.390625 3.5 -0.390625 C 3.84375 -0.390625 4.195312 -0.476562 4.5625 -0.65625 C 4.925781 -0.84375 5.207031 -1.066406 5.40625 -1.328125 L 5.671875 -1.109375 C 5.390625 -0.671875 5.019531 -0.34375 4.5625 -0.125 C 4.101562 0.0820312 3.65625 0.1875 3.21875 0.1875 Z M 4.546875 -3.734375 C 4.546875 -4.179688 4.441406 -4.566406 4.234375 -4.890625 C 4.035156 -5.210938 3.734375 -5.375 3.328125 -5.375 C 2.390625 -5.375 1.835938 -4.828125 1.671875 -3.734375 Z M 4.546875 -3.734375 "/></g></g><g style="fill:#ffffff;fill-opacity:1;"><g transform="translate(242.052733, 191.449689)"><path style="stroke:none" d="M 0.5 -0.34375 C 0.71875 -0.34375 0.875 -0.394531 0.96875 -0.5 C 1.0625 -0.613281 1.113281 -0.753906 1.125 -0.921875 C 1.144531 -1.085938 1.15625 -1.351562 1.15625 -1.71875 L 1.15625 -4.28125 C 1.15625 -4.601562 1.171875 -4.847656 1.203125 -5.015625 L 0.40625 -4.96875 L 0.40625 -5.453125 C 0.851562 -5.453125 1.15625 -5.472656 1.3125 -5.515625 C 1.476562 -5.566406 1.617188 -5.644531 1.734375 -5.75 L 2.0625 -5.75 C 2.082031 -5.632812 2.097656 -5.4375 2.109375 -5.15625 C 2.335938 -5.351562 2.597656 -5.515625 2.890625 -5.640625 C 3.191406 -5.765625 3.484375 -5.828125 3.765625 -5.828125 C 4.140625 -5.828125 4.453125 -5.757812 4.703125 -5.625 C 4.960938 -5.488281 5.164062 -5.300781 5.3125 -5.0625 C 5.582031 -5.28125 5.882812 -5.460938 6.21875 -5.609375 C 6.550781 -5.753906 6.875 -5.828125 7.1875 -5.828125 C 7.84375 -5.828125 8.320312 -5.625 8.625 -5.21875 C 8.9375 -4.8125 9.082031 -4.171875 9.0625 -3.296875 L 9.0625 -1.203125 C 9.0625 -0.859375 9.046875 -0.597656 9.015625 -0.421875 L 9.71875 -0.46875 L 9.71875 0 L 7.421875 0 L 7.421875 -0.34375 C 7.640625 -0.34375 7.796875 -0.394531 7.890625 -0.5 C 7.984375 -0.613281 8.039062 -0.753906 8.0625 -0.921875 C 8.082031 -1.085938 8.09375 -1.351562 8.09375 -1.71875 L 8.09375 -3.296875 C 8.09375 -3.941406 7.988281 -4.421875 7.78125 -4.734375 C 7.582031 -5.054688 7.265625 -5.21875 6.828125 -5.21875 C 6.585938 -5.21875 6.347656 -5.164062 6.109375 -5.0625 C 5.878906 -4.96875 5.675781 -4.835938 5.5 -4.671875 C 5.570312 -4.441406 5.609375 -4.164062 5.609375 -3.84375 L 5.578125 -1.203125 C 5.578125 -0.859375 5.566406 -0.597656 5.546875 -0.421875 L 6.25 -0.46875 L 6.25 0 L 3.953125 0 L 3.953125 -0.34375 C 4.171875 -0.34375 4.328125 -0.394531 4.421875 -0.5 C 4.515625 -0.613281 4.566406 -0.75 4.578125 -0.90625 C 4.597656 -1.070312 4.609375 -1.34375 4.609375 -1.71875 L 4.625 -3.296875 C 4.632812 -3.953125 4.539062 -4.441406 4.34375 -4.765625 C 4.144531 -5.085938 3.832031 -5.25 3.40625 -5.25 C 3.175781 -5.25 2.945312 -5.195312 2.71875 -5.09375 C 2.488281 -5 2.289062 -4.867188 2.125 -4.703125 L 2.125 -1.203125 C 2.125 -0.859375 2.113281 -0.597656 2.09375 -0.421875 L 2.796875 -0.46875 L 2.796875 0 L 0.5 0 Z M 0.5 -0.34375 "/></g></g><g style="fill:#ffffff;fill-opacity:1;"><g transform="translate(251.883493, 191.449689)"><path style="stroke:none" d="M 2.078125 0.1875 C 1.523438 0.1875 1.101562 0.0625 0.8125 -0.1875 C 0.53125 -0.4375 0.390625 -0.757812 0.390625 -1.15625 C 0.390625 -1.59375 0.5625 -1.960938 0.90625 -2.265625 C 1.257812 -2.566406 1.695312 -2.789062 2.21875 -2.9375 C 2.75 -3.082031 3.285156 -3.148438 3.828125 -3.140625 L 3.828125 -3.84375 C 3.828125 -4.332031 3.753906 -4.710938 3.609375 -4.984375 C 3.460938 -5.265625 3.160156 -5.40625 2.703125 -5.40625 C 2.460938 -5.40625 2.238281 -5.351562 2.03125 -5.25 C 1.820312 -5.15625 1.664062 -5.007812 1.5625 -4.8125 C 1.664062 -4.707031 1.71875 -4.566406 1.71875 -4.390625 C 1.71875 -4.273438 1.675781 -4.164062 1.59375 -4.0625 C 1.507812 -3.96875 1.390625 -3.921875 1.234375 -3.921875 C 1.078125 -3.921875 0.953125 -3.96875 0.859375 -4.0625 C 0.765625 -4.164062 0.71875 -4.300781 0.71875 -4.46875 C 0.71875 -4.71875 0.8125 -4.941406 1 -5.140625 C 1.195312 -5.347656 1.46875 -5.515625 1.8125 -5.640625 C 2.15625 -5.765625 2.535156 -5.828125 2.953125 -5.828125 C 3.585938 -5.828125 4.054688 -5.65625 4.359375 -5.3125 C 4.660156 -4.976562 4.804688 -4.453125 4.796875 -3.734375 L 4.78125 -1.203125 C 4.78125 -0.953125 4.765625 -0.691406 4.734375 -0.421875 L 5.546875 -0.46875 L 5.546875 0 L 3.921875 0 C 3.898438 -0.113281 3.875 -0.328125 3.84375 -0.640625 C 3.289062 -0.0859375 2.703125 0.1875 2.078125 0.1875 Z M 2.328125 -0.46875 C 2.617188 -0.46875 2.878906 -0.519531 3.109375 -0.625 C 3.347656 -0.738281 3.585938 -0.90625 3.828125 -1.125 C 3.816406 -1.238281 3.8125 -1.429688 3.8125 -1.703125 L 3.828125 -2.765625 C 3.210938 -2.742188 2.660156 -2.617188 2.171875 -2.390625 C 1.691406 -2.160156 1.453125 -1.804688 1.453125 -1.328125 C 1.453125 -1.046875 1.535156 -0.832031 1.703125 -0.6875 C 1.867188 -0.539062 2.078125 -0.46875 2.328125 -0.46875 Z M 2.328125 -0.46875 "/></g></g><g style="fill:#ffffff;fill-opacity:1;"><g transform="translate(257.452753, 191.449689)"><path style="stroke:none" d="M 2.8125 0.1875 C 2.457031 0.1875 2.132812 0.140625 1.84375 0.046875 C 1.550781 -0.046875 1.296875 -0.164062 1.078125 -0.3125 L 1.125 0.078125 L 0.65625 0.078125 L 0.59375 -1.859375 L 0.9375 -1.859375 C 0.945312 -1.554688 1.03125 -1.28125 1.1875 -1.03125 C 1.34375 -0.789062 1.546875 -0.601562 1.796875 -0.46875 C 2.046875 -0.332031 2.316406 -0.265625 2.609375 -0.265625 C 2.929688 -0.265625 3.21875 -0.335938 3.46875 -0.484375 C 3.71875 -0.640625 3.84375 -0.863281 3.84375 -1.15625 C 3.84375 -1.363281 3.78125 -1.535156 3.65625 -1.671875 C 3.53125 -1.816406 3.375 -1.9375 3.1875 -2.03125 C 3.007812 -2.125 2.753906 -2.238281 2.421875 -2.375 C 2.023438 -2.519531 1.707031 -2.65625 1.46875 -2.78125 C 1.226562 -2.914062 1.019531 -3.097656 0.84375 -3.328125 C 0.675781 -3.554688 0.59375 -3.84375 0.59375 -4.1875 C 0.59375 -4.4375 0.648438 -4.679688 0.765625 -4.921875 C 0.890625 -5.171875 1.09375 -5.382812 1.375 -5.5625 C 1.664062 -5.738281 2.046875 -5.828125 2.515625 -5.828125 C 2.742188 -5.828125 2.976562 -5.785156 3.21875 -5.703125 C 3.46875 -5.628906 3.703125 -5.507812 3.921875 -5.34375 L 3.890625 -5.765625 L 4.359375 -5.765625 L 4.359375 -3.796875 L 4 -3.796875 C 3.976562 -4.222656 3.84375 -4.597656 3.59375 -4.921875 C 3.351562 -5.242188 3.015625 -5.40625 2.578125 -5.40625 C 2.234375 -5.40625 1.960938 -5.316406 1.765625 -5.140625 C 1.566406 -4.972656 1.46875 -4.773438 1.46875 -4.546875 C 1.46875 -4.328125 1.53125 -4.140625 1.65625 -3.984375 C 1.789062 -3.835938 1.957031 -3.710938 2.15625 -3.609375 C 2.351562 -3.503906 2.613281 -3.390625 2.9375 -3.265625 C 3.332031 -3.097656 3.648438 -2.945312 3.890625 -2.8125 C 4.128906 -2.6875 4.332031 -2.507812 4.5 -2.28125 C 4.675781 -2.0625 4.765625 -1.796875 4.765625 -1.484375 C 4.765625 -1.117188 4.671875 -0.8125 4.484375 -0.5625 C 4.296875 -0.3125 4.050781 -0.125 3.75 0 C 3.457031 0.125 3.144531 0.1875 2.8125 0.1875 Z M 2.8125 0.1875 "/></g></g><g style="fill:#ffffff;fill-opacity:1;"><g transform="translate(262.430905, 191.449689)"><path style="stroke:none" d=""/></g></g><g style="fill:#ffffff;fill-opacity:1;"><g transform="translate(265.147898, 191.449689)"><path style="stroke:none" d="M 3.0625 0.1875 C 2.59375 0.1875 2.15625 0.109375 1.75 -0.046875 C 1.351562 -0.203125 1.03125 -0.445312 0.78125 -0.78125 C 0.53125 -1.113281 0.40625 -1.53125 0.40625 -2.03125 C 0.40625 -2.5 0.5625 -2.921875 0.875 -3.296875 C 1.1875 -3.679688 1.617188 -3.992188 2.171875 -4.234375 C 1.867188 -4.617188 1.648438 -4.972656 1.515625 -5.296875 C 1.378906 -5.617188 1.3125 -5.957031 1.3125 -6.3125 C 1.320312 -6.84375 1.519531 -7.269531 1.90625 -7.59375 C 2.300781 -7.914062 2.800781 -8.078125 3.40625 -8.078125 C 3.769531 -8.078125 4.09375 -8.003906 4.375 -7.859375 C 4.664062 -7.722656 4.890625 -7.535156 5.046875 -7.296875 C 5.210938 -7.054688 5.296875 -6.789062 5.296875 -6.5 C 5.296875 -6.0625 5.148438 -5.660156 4.859375 -5.296875 C 4.566406 -4.929688 4.09375 -4.582031 3.4375 -4.25 C 3.625 -4.050781 3.925781 -3.738281 4.34375 -3.3125 C 4.664062 -2.96875 5.0625 -2.578125 5.53125 -2.140625 C 5.601562 -2.398438 5.640625 -2.640625 5.640625 -2.859375 C 5.640625 -3.160156 5.570312 -3.421875 5.4375 -3.640625 C 5.3125 -3.859375 5.09375 -3.976562 4.78125 -4 L 4.78125 -4.359375 L 6.75 -4.359375 L 6.75 -3.90625 L 5.828125 -3.953125 C 6.054688 -3.742188 6.171875 -3.40625 6.171875 -2.9375 C 6.171875 -2.5625 6.09375 -2.171875 5.9375 -1.765625 L 6.171875 -1.5625 C 6.273438 -1.46875 6.390625 -1.367188 6.515625 -1.265625 C 6.835938 -0.972656 7.117188 -0.75 7.359375 -0.59375 C 7.609375 -0.445312 7.800781 -0.375 7.9375 -0.375 L 7.9375 0 L 6.875 0 C 6.789062 0 6.625 -0.078125 6.375 -0.234375 C 6.132812 -0.390625 5.835938 -0.625 5.484375 -0.9375 C 4.898438 -0.1875 4.09375 0.1875 3.0625 0.1875 Z M 3.1875 -4.53125 C 3.59375 -4.800781 3.898438 -5.101562 4.109375 -5.4375 C 4.328125 -5.769531 4.4375 -6.113281 4.4375 -6.46875 C 4.4375 -6.832031 4.335938 -7.128906 4.140625 -7.359375 C 3.953125 -7.597656 3.6875 -7.71875 3.34375 -7.71875 C 3.03125 -7.71875 2.769531 -7.597656 2.5625 -7.359375 C 2.363281 -7.128906 2.265625 -6.804688 2.265625 -6.390625 C 2.265625 -5.828125 2.570312 -5.207031 3.1875 -4.53125 Z M 3.3125 -0.390625 C 4.070312 -0.390625 4.675781 -0.675781 5.125 -1.25 C 4.96875 -1.382812 4.859375 -1.488281 4.796875 -1.5625 L 4.625 -1.71875 C 4.507812 -1.832031 4.191406 -2.140625 3.671875 -2.640625 C 3.160156 -3.148438 2.757812 -3.578125 2.46875 -3.921875 C 2.144531 -3.722656 1.90625 -3.457031 1.75 -3.125 C 1.601562 -2.800781 1.53125 -2.492188 1.53125 -2.203125 C 1.53125 -1.597656 1.703125 -1.144531 2.046875 -0.84375 C 2.398438 -0.539062 2.820312 -0.390625 3.3125 -0.390625 Z M 3.3125 -0.390625 "/></g></g><g style="fill:#ffffff;fill-opacity:1;"><g transform="translate(272.735173, 191.449689)"><path style="stroke:none" d=""/></g></g><g style="fill:#ffffff;fill-opacity:1;"><g transform="translate(275.452165, 191.449689)"><path style="stroke:none" d="M 1.1875 -5.890625 L 1.03125 -6.328125 C 0.851562 -6.890625 0.742188 -7.253906 0.703125 -7.421875 L 0.078125 -7.40625 L 0.078125 -7.890625 L 2.828125 -7.890625 L 2.828125 -7.53125 C 2.515625 -7.507812 2.289062 -7.457031 2.15625 -7.375 C 2.03125 -7.289062 1.96875 -7.148438 1.96875 -6.953125 C 1.96875 -6.765625 2.007812 -6.546875 2.09375 -6.296875 C 2.226562 -5.796875 2.40625 -5.234375 2.625 -4.609375 C 2.664062 -4.492188 2.710938 -4.359375 2.765625 -4.203125 C 2.816406 -4.046875 2.875 -3.867188 2.9375 -3.671875 C 2.988281 -3.503906 3.046875 -3.328125 3.109375 -3.140625 C 3.179688 -2.953125 3.234375 -2.816406 3.265625 -2.734375 C 3.410156 -2.328125 3.519531 -2.003906 3.59375 -1.765625 L 3.625 -1.765625 C 3.769531 -2.273438 3.921875 -2.773438 4.078125 -3.265625 C 4.347656 -4.128906 4.644531 -5.050781 4.96875 -6.03125 C 5.3125 -7.039062 5.515625 -7.671875 5.578125 -7.921875 L 5.9375 -7.921875 C 6.03125 -7.609375 6.1875 -7.125 6.40625 -6.46875 C 6.625 -5.8125 6.78125 -5.335938 6.875 -5.046875 C 7.101562 -4.398438 7.257812 -3.941406 7.34375 -3.671875 C 7.40625 -3.460938 7.503906 -3.15625 7.640625 -2.75 C 7.785156 -2.3125 7.90625 -1.941406 8 -1.640625 L 8.03125 -1.640625 C 8.207031 -2.222656 8.363281 -2.707031 8.5 -3.09375 C 8.875 -4.1875 9.1875 -5.125 9.4375 -5.90625 C 9.519531 -6.1875 9.59375 -6.421875 9.65625 -6.609375 C 9.800781 -6.992188 9.914062 -7.269531 10 -7.4375 L 9.109375 -7.40625 L 9.109375 -7.890625 L 11.390625 -7.890625 L 11.390625 -7.53125 C 11.117188 -7.5 10.914062 -7.441406 10.78125 -7.359375 C 10.644531 -7.273438 10.519531 -7.125 10.40625 -6.90625 C 10.300781 -6.695312 10.164062 -6.347656 10 -5.859375 L 9.421875 -4.140625 C 8.816406 -2.316406 8.332031 -0.898438 7.96875 0.109375 L 7.625 0.109375 L 5.515625 -5.921875 L 3.53125 0.109375 L 3.203125 0.109375 Z M 1.1875 -5.890625 "/></g></g><g style="fill:#ffffff;fill-opacity:1;"><g transform="translate(286.421574, 191.449689)"><path style="stroke:none" d="M 3.21875 0.1875 C 2.707031 0.1875 2.242188 0.0664062 1.828125 -0.171875 C 1.410156 -0.421875 1.078125 -0.773438 0.828125 -1.234375 C 0.585938 -1.691406 0.46875 -2.21875 0.46875 -2.8125 C 0.46875 -3.332031 0.585938 -3.820312 0.828125 -4.28125 C 1.078125 -4.75 1.414062 -5.125 1.84375 -5.40625 C 2.28125 -5.6875 2.769531 -5.828125 3.3125 -5.828125 C 3.738281 -5.828125 4.125 -5.726562 4.46875 -5.53125 C 4.820312 -5.34375 5.097656 -5.0625 5.296875 -4.6875 C 5.503906 -4.320312 5.609375 -3.867188 5.609375 -3.328125 L 1.640625 -3.265625 C 1.628906 -2.359375 1.773438 -1.648438 2.078125 -1.140625 C 2.378906 -0.640625 2.851562 -0.390625 3.5 -0.390625 C 3.84375 -0.390625 4.195312 -0.476562 4.5625 -0.65625 C 4.925781 -0.84375 5.207031 -1.066406 5.40625 -1.328125 L 5.671875 -1.109375 C 5.390625 -0.671875 5.019531 -0.34375 4.5625 -0.125 C 4.101562 0.0820312 3.65625 0.1875 3.21875 0.1875 Z M 4.546875 -3.734375 C 4.546875 -4.179688 4.441406 -4.566406 4.234375 -4.890625 C 4.035156 -5.210938 3.734375 -5.375 3.328125 -5.375 C 2.390625 -5.375 1.835938 -4.828125 1.671875 -3.734375 Z M 4.546875 -3.734375 "/></g></g><g style="fill:#ffffff;fill-opacity:1;"><g transform="translate(292.283953, 191.449689)"><path style="stroke:none" d="M 3.15625 0.1875 C 2.851562 0.1875 2.554688 0.128906 2.265625 0.015625 C 1.972656 -0.0859375 1.71875 -0.257812 1.5 -0.5 L 1.234375 0 L 0.828125 0 L 0.859375 -7.046875 C 0.859375 -7.335938 0.867188 -7.582031 0.890625 -7.78125 L 0.09375 -7.734375 L 0.09375 -8.21875 C 0.539062 -8.21875 0.859375 -8.242188 1.046875 -8.296875 C 1.242188 -8.347656 1.394531 -8.421875 1.5 -8.515625 L 1.828125 -8.515625 L 1.828125 -5.15625 C 2.035156 -5.363281 2.285156 -5.523438 2.578125 -5.640625 C 2.867188 -5.765625 3.1875 -5.828125 3.53125 -5.828125 C 4.007812 -5.828125 4.441406 -5.707031 4.828125 -5.46875 C 5.222656 -5.238281 5.53125 -4.90625 5.75 -4.46875 C 5.976562 -4.03125 6.09375 -3.523438 6.09375 -2.953125 C 6.09375 -2.328125 5.957031 -1.773438 5.6875 -1.296875 C 5.414062 -0.828125 5.050781 -0.460938 4.59375 -0.203125 C 4.144531 0.0546875 3.664062 0.1875 3.15625 0.1875 Z M 3.15625 -0.28125 C 3.695312 -0.28125 4.128906 -0.5 4.453125 -0.9375 C 4.773438 -1.382812 4.9375 -1.960938 4.9375 -2.671875 C 4.9375 -3.460938 4.785156 -4.09375 4.484375 -4.5625 C 4.191406 -5.03125 3.757812 -5.265625 3.1875 -5.265625 C 2.945312 -5.265625 2.703125 -5.207031 2.453125 -5.09375 C 2.210938 -4.976562 2.003906 -4.820312 1.828125 -4.625 L 1.828125 -1.765625 C 1.828125 -0.773438 2.269531 -0.28125 3.15625 -0.28125 Z M 3.15625 -0.28125 "/></g></g></g></svg>